<svg version="1.1" viewBox="0.0 0.0 600.0 371.0" fill="none" stroke="none" stroke-linecap="square" stroke-miterlimit="10" width="600" height="371" xmlns:xlink="http://www.w3.org/1999/xlink" xmlns="http://www.w3.org/2000/svg"><path fill="#ffffff" d="M0 0L600.0 0L600.0 371.0L0 371.0L0 0Z" fill-rule="nonzero"/><path stroke="#cccccc" stroke-width="1.0" stroke-linecap="butt" d="M166.5 81.5L166.5 306.5" fill-rule="nonzero"/><path stroke="#cccccc" stroke-width="1.0" stroke-linecap="butt" d="M229.5 81.5L229.5 306.5" fill-rule="nonzero"/><path stroke="#cccccc" stroke-width="1.0" stroke-linecap="butt" d="M374.5 81.5L374.5 306.5" fill-rule="nonzero"/><path stroke="#cccccc" stroke-width="1.0" stroke-linecap="butt" d="M436.5 81.5L436.5 306.5" fill-rule="nonzero"/><path stroke="#cccccc" stroke-width="1.0" stroke-linecap="butt" d="M581.5 81.5L581.5 306.5" fill-rule="nonzero"/><path stroke="#cccccc" stroke-width="1.0" stroke-linecap="butt" d="M84.5 306.5L581.5 306.5" fill-rule="nonzero"/><path stroke="#cccccc" stroke-width="1.0" stroke-linecap="butt" d="M84.5 276.5L581.5 276.5" fill-rule="nonzero"/><path stroke="#cccccc" stroke-width="1.0" stroke-linecap="butt" d="M84.5 205.5L581.5 205.5" fill-rule="nonzero"/><path stroke="#cccccc" stroke-width="1.0" stroke-linecap="butt" d="M84.5 174.5L581.5 174.5" fill-rule="nonzero"/><path stroke="#cccccc" stroke-width="1.0" stroke-linecap="butt" d="M84.5 104.5L581.5 104.5" fill-rule="nonzero"/><path stroke="#000000" stroke-width="1.0" stroke-linecap="butt" d="M84.5 306.5L84.5 81.5" fill-rule="nonzero"/><clipPath id="id_0"><path d="M84.04787 81.28333L581.45 81.28333L581.45 306.5L84.04787 306.5L84.04787 81.28333Z" clip-rule="nonzero"/></clipPath><path stroke="#ff0000" stroke-width="2.0" stroke-linecap="butt" clip-path="url(#id_0)" d="M84.04787 81.28333C84.04787 81.28333 125.67609 115.50103 146.49019 125.99626C167.3043 136.49149 188.11841 137.41008 208.93253 144.25473C229.74664 151.09938 250.56075 156.5958 271.37485 167.06418C292.18896 177.53256 313.00308 199.55602 333.8172 207.06505C354.6313 214.5741 375.4454 204.62823 396.25952 212.11841C417.07364 219.60857 437.88773 236.83484 458.70184 252.00606C479.51596 267.17728 521.14417 303.14572 521.14417 303.14572" fill-rule="nonzero"/><path stroke="#38761d" stroke-width="2.0" stroke-linecap="butt" clip-path="url(#id_0)" d="M84.04787 150.8815C84.04787 150.8815 125.67609 142.83041 146.49019 162.86363C167.3043 182.89685 188.11841 248.71646 208.93253 271.0808C229.74664 293.44516 271.37485 297.0498 271.37485 297.0498" fill-rule="nonzero"/><path fill="#000000" fill-opacity="0.0" clip-path="url(#id_0)" d="M87.04787 81.28333C87.04787 82.940186 85.70472 84.28333 84.04787 84.28333C82.39101 84.28333 81.04787 82.940186 81.04787 81.28333C81.04787 79.62648 82.39101 78.28333 84.04787 78.28333C85.70472 78.28333 87.04787 79.62648 87.04787 81.28333Z" fill-rule="nonzero"/><path fill="#000000" fill-opacity="0.0" clip-path="url(#id_0)" d="M149.49019 125.99626C149.49019 127.653114 148.14705 128.99626 146.49019 128.99626C144.83334 128.99626 143.49019 127.653114 143.49019 125.99626C143.49019 124.33941 144.83334 122.99626 146.49019 122.99626C148.14705 122.99626 149.49019 124.33941 149.49019 125.99626Z" fill-rule="nonzero"/><path fill="#000000" fill-opacity="0.0" clip-path="url(#id_0)" d="M211.93253 144.25473C211.93253 145.91158 210.58939 147.25473 208.93253 147.25473C207.27567 147.25473 205.93253 145.91158 205.93253 144.25473C205.93253 142.59787 207.27567 141.25473 208.93253 141.25473C210.58939 141.25473 211.93253 142.59787 211.93253 144.25473Z" fill-rule="nonzero"/><path fill="#000000" fill-opacity="0.0" clip-path="url(#id_0)" d="M274.37485 167.06418C274.37485 168.72104 273.0317 170.06418 271.37485 170.06418C269.718 170.06418 268.37485 168.72104 268.37485 167.06418C268.37485 165.40733 269.718 164.06418 271.37485 164.06418C273.0317 164.06418 274.37485 165.40733 274.37485 167.06418Z" fill-rule="nonzero"/><path fill="#000000" fill-opacity="0.0" clip-path="url(#id_0)" d="M336.8172 207.06505C336.8172 208.72191 335.47403 210.06505 333.8172 210.06505C332.16034 210.06505 330.8172 208.72191 330.8172 207.06505C330.8172 205.4082 332.16034 204.06505 333.8172 204.06505C335.47403 204.06505 336.8172 205.4082 336.8172 207.06505Z" fill-rule="nonzero"/><path fill="#000000" fill-opacity="0.0" clip-path="url(#id_0)" d="M399.25952 212.11841C399.25952 213.77525 397.91638 215.11841 396.25952 215.11841C394.60266 215.11841 393.25952 213.77525 393.25952 212.11841C393.25952 210.46155 394.60266 209.11841 396.25952 209.11841C397.91638 209.11841 399.25952 210.46155 399.25952 212.11841Z" fill-rule="nonzero"/><path fill="#000000" fill-opacity="0.0" clip-path="url(#id_0)" d="M461.70184 252.00606C461.70184 253.66292 460.3587 255.00606 458.70184 255.00606C457.04498 255.00606 455.70184 253.66292 455.70184 252.00606C455.70184 250.34921 457.04498 249.00606 458.70184 249.00606C460.3587 249.00606 461.70184 250.34921 461.70184 252.00606Z" fill-rule="nonzero"/><path fill="#000000" fill-opacity="0.0" clip-path="url(#id_0)" d="M524.14417 303.14572C524.14417 304.80258 522.801 306.14572 521.14417 306.14572C519.4873 306.14572 518.14417 304.80258 518.14417 303.14572C518.14417 301.48886 519.4873 300.14572 521.14417 300.14572C522.801 300.14572 524.14417 301.48886 524.14417 303.14572Z" fill-rule="nonzero"/><path fill="#000000" fill-opacity="0.0" clip-path="url(#id_0)" d="M87.04787 150.8815C87.04787 152.53836 85.70472 153.8815 84.04787 153.8815C82.39101 153.8815 81.04787 152.53836 81.04787 150.8815C81.04787 149.22466 82.39101 147.8815 84.04787 147.8815C85.70472 147.8815 87.04787 149.22466 87.04787 150.8815Z" fill-rule="nonzero"/><path fill="#000000" fill-opacity="0.0" clip-path="url(#id_0)" d="M149.49019 162.86363C149.49019 164.5205 148.14705 165.86363 146.49019 165.86363C144.83334 165.86363 143.49019 164.5205 143.49019 162.86363C143.49019 161.20677 144.83334 159.86363 146.49019 159.86363C148.14705 159.86363 149.49019 161.20677 149.49019 162.86363Z" fill-rule="nonzero"/><path fill="#000000" fill-opacity="0.0" clip-path="url(#id_0)" d="M211.93253 271.0808C211.93253 272.73767 210.58939 274.0808 208.93253 274.0808C207.27567 274.0808 205.93253 272.73767 205.93253 271.0808C205.93253 269.42395 207.27567 268.0808 208.93253 268.0808C210.58939 268.0808 211.93253 269.42395 211.93253 271.0808Z" fill-rule="nonzero"/><path fill="#000000" fill-opacity="0.0" clip-path="url(#id_0)" d="M274.37485 297.0498C274.37485 298.70663 273.0317 300.0498 271.37485 300.0498C269.718 300.0498 268.37485 298.70663 268.37485 297.0498C268.37485 295.39294 269.718 294.0498 271.37485 294.0498C273.0317 294.0498 274.37485 295.39294 274.37485 297.0498Z" fill-rule="nonzero"/><path fill="#000000" d="M255.1708 352.24133L255.1708 343.64758L256.32706 343.64758L260.84268 350.39758L260.84268 343.64758L261.93643 343.64758L261.93643 352.24133L260.76456 352.24133L256.24893 345.49133L256.24893 352.24133L255.1708 352.24133ZM268.12393 352.24133L268.12393 351.31946Q267.38956 352.38196 266.13956 352.38196Q265.59268 352.38196 265.1083 352.17883Q264.63956 351.96008 264.40518 351.64758Q264.1708 351.31946 264.07706 350.8507Q264.01456 350.55383 264.01456 349.86633L264.01456 346.02258L265.07706 346.02258L265.07706 349.4757Q265.07706 350.2882 265.13956 350.58508Q265.2333 350.99133 265.5458 351.24133Q265.87393 351.4757 266.3583 351.4757Q266.82706 351.4757 267.2333 351.24133Q267.65518 350.99133 267.82706 350.56946Q268.01456 350.14758 268.01456 349.3507L268.01456 346.02258L269.06143 346.02258L269.06143 352.24133L268.12393 352.24133ZM271.0458 352.24133L271.0458 346.02258L271.9833 346.02258L271.9833 346.89758Q272.28018 346.42883 272.76456 346.1632Q273.24893 345.88196 273.87393 345.88196Q274.56143 345.88196 274.99893 346.1632Q275.45206 346.44446 275.62393 346.96008Q276.37393 345.88196 277.5458 345.88196Q278.4833 345.88196 278.96768 346.39758Q279.46768 346.89758 279.46768 347.9757L279.46768 352.24133L278.4208 352.24133L278.4208 348.31946Q278.4208 347.69446 278.31143 347.4132Q278.21768 347.13196 277.95206 346.96008Q277.68643 346.7882 277.31143 346.7882Q276.65518 346.7882 276.21768 347.2257Q275.7958 347.6632 275.7958 348.63196L275.7958 352.24133L274.7333 352.24133L274.7333 348.19446Q274.7333 347.49133 274.46768 347.14758Q274.21768 346.7882 273.63956 346.7882Q273.18643 346.7882 272.81143 347.02258Q272.43643 347.25696 272.26456 347.71008Q272.09268 348.1632 272.09268 349.00696L272.09268 352.24133L271.0458 352.24133ZM282.01456 352.24133L281.03018 352.24133L281.03018 343.64758L282.09268 343.64758L282.09268 346.71008Q282.76456 345.88196 283.7958 345.88196Q284.37393 345.88196 284.87393 346.11633Q285.38956 346.33508 285.71768 346.75696Q286.06143 347.17883 286.24893 347.77258Q286.43643 348.36633 286.43643 349.0382Q286.43643 350.63196 285.63956 351.50696Q284.84268 352.38196 283.74893 352.38196Q282.63956 352.38196 282.01456 351.46008L282.01456 352.24133ZM281.99893 349.08508Q281.99893 350.19446 282.31143 350.69446Q282.81143 351.50696 283.65518 351.50696Q284.34268 351.50696 284.84268 350.9132Q285.3583 350.31946 285.3583 349.11633Q285.3583 347.89758 284.87393 347.31946Q284.38956 346.74133 283.70206 346.74133Q283.01456 346.74133 282.49893 347.3507Q281.99893 347.94446 281.99893 349.08508ZM292.2958 350.24133L293.38956 350.36633Q293.13956 351.31946 292.43643 351.8507Q291.7333 352.38196 290.65518 352.38196Q289.2958 352.38196 288.4833 351.5382Q287.68643 350.69446 287.68643 349.17883Q287.68643 347.61633 288.49893 346.75696Q289.31143 345.88196 290.59268 345.88196Q291.84268 345.88196 292.62393 346.7257Q293.4208 347.56946 293.4208 349.11633Q293.4208 349.21008 293.4208 349.39758L288.78018 349.39758Q288.84268 350.42883 289.3583 350.9757Q289.87393 351.50696 290.65518 351.50696Q291.2333 351.50696 291.63956 351.21008Q292.06143 350.89758 292.2958 350.24133ZM288.84268 348.5382L292.31143 348.5382Q292.24893 347.74133 291.9208 347.3507Q291.40518 346.74133 290.6083 346.74133Q289.87393 346.74133 289.37393 347.2257Q288.88956 347.71008 288.84268 348.5382ZM295.03018 352.24133L295.03018 346.02258L295.9833 346.02258L295.9833 346.96008Q296.34268 346.30383 296.63956 346.1007Q296.95206 345.88196 297.32706 345.88196Q297.8583 345.88196 298.40518 346.21008L298.0458 347.19446Q297.65518 346.96008 297.28018 346.96008Q296.9208 346.96008 296.63956 347.17883Q296.37393 347.38196 296.26456 347.75696Q296.07706 348.31946 296.07706 348.9757L296.07706 352.24133L295.03018 352.24133ZM301.65518 349.13196Q301.65518 347.39758 302.6083 346.56946Q303.40518 345.88196 304.56143 345.88196Q305.84268 345.88196 306.65518 346.7257Q307.4833 347.55383 307.4833 349.0382Q307.4833 350.24133 307.12393 350.92883Q306.76456 351.61633 306.06143 352.00696Q305.37393 352.38196 304.56143 352.38196Q303.26456 352.38196 302.45206 351.55383Q301.65518 350.71008 301.65518 349.13196ZM302.7333 349.13196Q302.7333 350.31946 303.24893 350.9132Q303.78018 351.50696 304.56143 351.50696Q305.3583 351.50696 305.87393 350.9132Q306.38956 350.31946 306.38956 349.1007Q306.38956 347.94446 305.8583 347.3507Q305.34268 346.75696 304.56143 346.75696Q303.78018 346.75696 303.24893 347.3507Q302.7333 347.92883 302.7333 349.13196ZM309.2958 352.24133L309.2958 346.83508L308.3583 346.83508L308.3583 346.02258L309.2958 346.02258L309.2958 345.3507Q309.2958 344.7257 309.40518 344.42883Q309.56143 344.00696 309.93643 343.75696Q310.32706 343.50696 311.01456 343.50696Q311.46768 343.50696 311.99893 343.61633L311.84268 344.52258Q311.51456 344.4757 311.21768 344.4757Q310.7333 344.4757 310.53018 344.67883Q310.34268 344.88196 310.34268 345.44446L310.34268 346.02258L311.56143 346.02258L311.56143 346.83508L310.34268 346.83508L310.34268 352.24133L309.2958 352.24133ZM317.34268 351.30383L317.49893 352.2257Q317.0458 352.31946 316.70206 352.31946Q316.12393 352.31946 315.81143 352.14758Q315.49893 351.96008 315.3583 351.6632Q315.2333 351.36633 315.2333 350.4132L315.2333 346.83508L314.46768 346.83508L314.46768 346.02258L315.2333 346.02258L315.2333 344.4757L316.28018 343.8507L316.28018 346.02258L317.34268 346.02258L317.34268 346.83508L316.28018 346.83508L316.28018 350.4757Q316.28018 350.92883 316.32706 351.05383Q316.38956 351.17883 316.51456 351.25696Q316.63956 351.33508 316.87393 351.33508Q317.06143 351.33508 317.34268 351.30383ZM318.03018 352.24133L318.03018 346.02258L318.9833 346.02258L318.9833 346.96008Q319.34268 346.30383 319.63956 346.1007Q319.95206 345.88196 320.32706 345.88196Q320.8583 345.88196 321.40518 346.21008L321.0458 347.19446Q320.65518 346.96008 320.28018 346.96008Q319.9208 346.96008 319.63956 347.17883Q319.37393 347.38196 319.26456 347.75696Q319.07706 348.31946 319.07706 348.9757L319.07706 352.24133L318.03018 352.24133ZM326.1083 351.4757Q325.51456 351.9757 324.96768 352.17883Q324.43643 352.38196 323.81143 352.38196Q322.78018 352.38196 322.2333 351.88196Q321.68643 351.38196 321.68643 350.6007Q321.68643 350.14758 321.88956 349.77258Q322.09268 349.38196 322.43643 349.1632Q322.78018 348.92883 323.20206 348.81946Q323.49893 348.7257 324.13956 348.64758Q325.40518 348.50696 326.01456 348.2882Q326.01456 348.06946 326.01456 348.02258Q326.01456 347.36633 325.71768 347.1007Q325.31143 346.75696 324.51456 346.75696Q323.78018 346.75696 323.4208 347.02258Q323.06143 347.27258 322.88956 347.92883L321.8583 347.7882Q321.99893 347.13196 322.32706 346.7257Q322.65518 346.31946 323.26456 346.1007Q323.87393 345.88196 324.6708 345.88196Q325.46768 345.88196 325.96768 346.06946Q326.46768 346.25696 326.70206 346.5382Q326.93643 346.81946 327.03018 347.25696Q327.07706 347.52258 327.07706 348.2257L327.07706 349.63196Q327.07706 351.1007 327.13956 351.49133Q327.21768 351.88196 327.4208 352.24133L326.31143 352.24133Q326.15518 351.9132 326.1083 351.4757ZM326.01456 349.11633Q325.43643 349.3507 324.2958 349.52258Q323.63956 349.61633 323.37393 349.74133Q323.1083 349.8507 322.95206 350.06946Q322.81143 350.2882 322.81143 350.56946Q322.81143 350.99133 323.12393 351.27258Q323.45206 351.55383 324.06143 351.55383Q324.6708 351.55383 325.13956 351.2882Q325.62393 351.02258 325.84268 350.55383Q326.01456 350.19446 326.01456 349.50696L326.01456 349.11633ZM329.0458 344.86633L329.0458 343.64758L330.1083 343.64758L330.1083 344.86633L329.0458 344.86633ZM329.0458 352.24133L329.0458 346.02258L330.1083 346.02258L330.1083 352.24133L329.0458 352.24133ZM332.0458 352.24133L332.0458 346.02258L332.9833 346.02258L332.9833 346.89758Q333.6708 345.88196 334.96768 345.88196Q335.53018 345.88196 335.99893 346.08508Q336.4833 346.2882 336.71768 346.61633Q336.95206 346.94446 337.0458 347.38196Q337.09268 347.67883 337.09268 348.4132L337.09268 352.24133L336.0458 352.24133L336.0458 348.46008Q336.0458 347.80383 335.9208 347.49133Q335.7958 347.17883 335.4833 346.99133Q335.1708 346.7882 334.74893 346.7882Q334.07706 346.7882 333.57706 347.2257Q333.09268 347.64758 333.09268 348.83508L333.09268 352.24133L332.0458 352.24133ZM339.0458 344.86633L339.0458 343.64758L340.1083 343.64758L340.1083 344.86633L339.0458 344.86633ZM339.0458 352.24133L339.0458 346.02258L340.1083 346.02258L340.1083 352.24133L339.0458 352.24133ZM342.0458 352.24133L342.0458 346.02258L342.9833 346.02258L342.9833 346.89758Q343.6708 345.88196 344.96768 345.88196Q345.53018 345.88196 345.99893 346.08508Q346.4833 346.2882 346.71768 346.61633Q346.95206 346.94446 347.0458 347.38196Q347.09268 347.67883 347.09268 348.4132L347.09268 352.24133L346.0458 352.24133L346.0458 348.46008Q346.0458 347.80383 345.9208 347.49133Q345.7958 347.17883 345.4833 346.99133Q345.1708 346.7882 344.74893 346.7882Q344.07706 346.7882 343.57706 347.2257Q343.09268 347.64758 343.09268 348.83508L343.09268 352.24133L342.0458 352.24133ZM348.84268 352.75696L349.87393 352.9132Q349.93643 353.38196 350.2333 353.6007Q350.62393 353.89758 351.2958 353.89758Q352.03018 353.89758 352.4208 353.6007Q352.82706 353.30383 352.96768 352.7882Q353.06143 352.46008 353.0458 351.42883Q352.3583 352.24133 351.32706 352.24133Q350.0458 352.24133 349.34268 351.31946Q348.63956 350.38196 348.63956 349.1007Q348.63956 348.21008 348.95206 347.46008Q349.28018 346.69446 349.88956 346.2882Q350.49893 345.88196 351.32706 345.88196Q352.43643 345.88196 353.15518 346.77258L353.15518 346.02258L354.12393 346.02258L354.12393 351.39758Q354.12393 352.8507 353.82706 353.46008Q353.53018 354.06946 352.88956 354.4132Q352.24893 354.77258 351.31143 354.77258Q350.20206 354.77258 349.51456 354.27258Q348.82706 353.77258 348.84268 352.75696ZM349.71768 349.02258Q349.71768 350.24133 350.20206 350.80383Q350.68643 351.36633 351.4208 351.36633Q352.15518 351.36633 352.63956 350.80383Q353.13956 350.24133 353.13956 349.05383Q353.13956 347.9132 352.62393 347.33508Q352.12393 346.75696 351.40518 346.75696Q350.70206 346.75696 350.20206 347.33508Q349.71768 347.89758 349.71768 349.02258ZM363.2958 350.24133L364.38956 350.36633Q364.13956 351.31946 363.43643 351.8507Q362.7333 352.38196 361.65518 352.38196Q360.2958 352.38196 359.4833 351.5382Q358.68643 350.69446 358.68643 349.17883Q358.68643 347.61633 359.49893 346.75696Q360.31143 345.88196 361.59268 345.88196Q362.84268 345.88196 363.62393 346.7257Q364.4208 347.56946 364.4208 349.11633Q364.4208 349.21008 364.4208 349.39758L359.78018 349.39758Q359.84268 350.42883 360.3583 350.9757Q360.87393 351.50696 361.65518 351.50696Q362.2333 351.50696 362.63956 351.21008Q363.06143 350.89758 363.2958 350.24133ZM359.84268 348.5382L363.31143 348.5382Q363.24893 347.74133 362.9208 347.3507Q362.40518 346.74133 361.6083 346.74133Q360.87393 346.74133 360.37393 347.2257Q359.88956 347.71008 359.84268 348.5382ZM365.34268 352.24133L367.6083 349.00696L365.51456 346.02258L366.82706 346.02258L367.78018 347.4757Q368.0458 347.89758 368.21768 348.17883Q368.46768 347.7882 368.68643 347.49133L369.7333 346.02258L370.99893 346.02258L368.84268 348.94446L371.15518 352.24133L369.87393 352.24133L368.59268 350.30383L368.24893 349.7882L366.6083 352.24133L365.34268 352.24133ZM376.1083 351.4757Q375.51456 351.9757 374.96768 352.17883Q374.43643 352.38196 373.81143 352.38196Q372.78018 352.38196 372.2333 351.88196Q371.68643 351.38196 371.68643 350.6007Q371.68643 350.14758 371.88956 349.77258Q372.09268 349.38196 372.43643 349.1632Q372.78018 348.92883 373.20206 348.81946Q373.49893 348.7257 374.13956 348.64758Q375.40518 348.50696 376.01456 348.2882Q376.01456 348.06946 376.01456 348.02258Q376.01456 347.36633 375.71768 347.1007Q375.31143 346.75696 374.51456 346.75696Q373.78018 346.75696 373.4208 347.02258Q373.06143 347.27258 372.88956 347.92883L371.8583 347.7882Q371.99893 347.13196 372.32706 346.7257Q372.65518 346.31946 373.26456 346.1007Q373.87393 345.88196 374.6708 345.88196Q375.46768 345.88196 375.96768 346.06946Q376.46768 346.25696 376.70206 346.5382Q376.93643 346.81946 377.03018 347.25696Q377.07706 347.52258 377.07706 348.2257L377.07706 349.63196Q377.07706 351.1007 377.13956 351.49133Q377.21768 351.88196 377.4208 352.24133L376.31143 352.24133Q376.15518 351.9132 376.1083 351.4757ZM376.01456 349.11633Q375.43643 349.3507 374.2958 349.52258Q373.63956 349.61633 373.37393 349.74133Q373.1083 349.8507 372.95206 350.06946Q372.81143 350.2882 372.81143 350.56946Q372.81143 350.99133 373.12393 351.27258Q373.45206 351.55383 374.06143 351.55383Q374.6708 351.55383 375.13956 351.2882Q375.62393 351.02258 375.84268 350.55383Q376.01456 350.19446 376.01456 349.50696L376.01456 349.11633ZM379.0458 352.24133L379.0458 346.02258L379.9833 346.02258L379.9833 346.89758Q380.28018 346.42883 380.76456 346.1632Q381.24893 345.88196 381.87393 345.88196Q382.56143 345.88196 382.99893 346.1632Q383.45206 346.44446 383.62393 346.96008Q384.37393 345.88196 385.5458 345.88196Q386.4833 345.88196 386.96768 346.39758Q387.46768 346.89758 387.46768 347.9757L387.46768 352.24133L386.4208 352.24133L386.4208 348.31946Q386.4208 347.69446 386.31143 347.4132Q386.21768 347.13196 385.95206 346.96008Q385.68643 346.7882 385.31143 346.7882Q384.65518 346.7882 384.21768 347.2257Q383.7958 347.6632 383.7958 348.63196L383.7958 352.24133L382.7333 352.24133L382.7333 348.19446Q382.7333 347.49133 382.46768 347.14758Q382.21768 346.7882 381.63956 346.7882Q381.18643 346.7882 380.81143 347.02258Q380.43643 347.25696 380.26456 347.71008Q380.09268 348.1632 380.09268 349.00696L380.09268 352.24133L379.0458 352.24133ZM389.0458 354.63196L389.0458 346.02258L389.99893 346.02258L389.99893 346.81946Q390.34268 346.3507 390.76456 346.11633Q391.20206 345.88196 391.81143 345.88196Q392.6083 345.88196 393.21768 346.2882Q393.82706 346.69446 394.12393 347.44446Q394.43643 348.19446 394.43643 349.08508Q394.43643 350.0382 394.09268 350.80383Q393.76456 351.56946 393.1083 351.9757Q392.45206 352.38196 391.7333 352.38196Q391.20206 352.38196 390.78018 352.1632Q390.3583 351.92883 390.09268 351.6007L390.09268 354.63196L389.0458 354.63196ZM389.99893 349.1632Q389.99893 350.36633 390.4833 350.94446Q390.96768 351.50696 391.65518 351.50696Q392.3583 351.50696 392.8583 350.9132Q393.3583 350.31946 393.3583 349.06946Q393.3583 347.88196 392.87393 347.30383Q392.38956 346.71008 391.70206 346.71008Q391.03018 346.71008 390.51456 347.33508Q389.99893 347.96008 389.99893 349.1632ZM396.01456 352.24133L396.01456 343.64758L397.07706 343.64758L397.07706 352.24133L396.01456 352.24133ZM403.2958 350.24133L404.38956 350.36633Q404.13956 351.31946 403.43643 351.8507Q402.7333 352.38196 401.65518 352.38196Q400.2958 352.38196 399.4833 351.5382Q398.68643 350.69446 398.68643 349.17883Q398.68643 347.61633 399.49893 346.75696Q400.31143 345.88196 401.59268 345.88196Q402.84268 345.88196 403.62393 346.7257Q404.4208 347.56946 404.4208 349.11633Q404.4208 349.21008 404.4208 349.39758L399.78018 349.39758Q399.84268 350.42883 400.3583 350.9757Q400.87393 351.50696 401.65518 351.50696Q402.2333 351.50696 402.63956 351.21008Q403.06143 350.89758 403.2958 350.24133ZM399.84268 348.5382L403.31143 348.5382Q403.24893 347.74133 402.9208 347.3507Q402.40518 346.74133 401.6083 346.74133Q400.87393 346.74133 400.37393 347.2257Q399.88956 347.71008 399.84268 348.5382ZM405.62393 350.38196L406.65518 350.2257Q406.74893 350.8507 407.13956 351.17883Q407.5458 351.50696 408.28018 351.50696Q408.99893 351.50696 409.34268 351.2257Q409.70206 350.92883 409.70206 350.52258Q409.70206 350.1632 409.38956 349.96008Q409.1708 349.81946 408.31143 349.6007Q407.15518 349.30383 406.70206 349.1007Q406.26456 348.88196 406.03018 348.50696Q405.7958 348.13196 405.7958 347.6632Q405.7958 347.25696 405.9833 346.89758Q406.1708 346.5382 406.49893 346.30383Q406.74893 346.13196 407.1708 346.00696Q407.59268 345.88196 408.09268 345.88196Q408.81143 345.88196 409.3583 346.1007Q409.9208 346.30383 410.18643 346.6632Q410.45206 347.02258 410.5458 347.61633L409.51456 347.75696Q409.45206 347.2882 409.1083 347.02258Q408.78018 346.74133 408.15518 346.74133Q407.43643 346.74133 407.12393 346.99133Q406.81143 347.2257 406.81143 347.55383Q406.81143 347.75696 406.93643 347.9132Q407.07706 348.08508 407.34268 348.19446Q407.49893 348.25696 408.28018 348.46008Q409.40518 348.77258 409.84268 348.96008Q410.28018 349.14758 410.53018 349.50696Q410.78018 349.86633 410.78018 350.4132Q410.78018 350.94446 410.46768 351.4132Q410.1708 351.86633 409.59268 352.13196Q409.01456 352.38196 408.28018 352.38196Q407.06143 352.38196 406.4208 351.88196Q405.7958 351.36633 405.62393 350.38196Z" fill-rule="nonzero"/><path fill="#000000" d="M28.029913 220.80026L19.436163 220.80026L19.436163 214.59714L20.451788 214.59714L20.451788 219.65964L23.076788 219.65964L23.076788 214.90964L24.092413 214.90964L24.092413 219.65964L27.014288 219.65964L27.014288 214.39401L28.029913 214.39401L28.029913 220.80026ZM28.029913 212.97214L21.811163 212.97214L21.811163 212.01901L22.748663 212.01901Q22.092413 211.65964 21.889288 211.36276Q21.670538 211.05026 21.670538 210.67526Q21.670538 210.14401 21.998663 209.59714L22.983038 209.95651Q22.748663 210.34714 22.748663 210.72214Q22.748663 211.08151 22.967413 211.36276Q23.170538 211.62839 23.545538 211.73776Q24.108038 211.92526 24.764288 211.92526L28.029913 211.92526L28.029913 212.97214ZM28.029913 208.97214L21.811163 208.97214L21.811163 208.01901L22.748663 208.01901Q22.092413 207.65964 21.889288 207.36276Q21.670538 207.05026 21.670538 206.67526Q21.670538 206.14401 21.998663 205.59714L22.983038 205.95651Q22.748663 206.34714 22.748663 206.72214Q22.748663 207.08151 22.967413 207.36276Q23.170538 207.62839 23.545538 207.73776Q24.108038 207.92526 24.764288 207.92526L28.029913 207.92526L28.029913 208.97214ZM24.920538 205.34714Q23.186163 205.34714 22.358038 204.39401Q21.670538 203.59714 21.670538 202.44089Q21.670538 201.15964 22.514288 200.34714Q23.342413 199.51901 24.826788 199.51901Q26.029913 199.51901 26.717413 199.87839Q27.404913 200.23776 27.795538 200.94089Q28.170538 201.62839 28.170538 202.44089Q28.170538 203.73776 27.342413 204.55026Q26.498663 205.34714 24.920538 205.34714ZM24.920538 204.26901Q26.108038 204.26901 26.701788 203.75339Q27.295538 203.22214 27.295538 202.44089Q27.295538 201.64401 26.701788 201.12839Q26.108038 200.61276 24.889288 200.61276Q23.733038 200.61276 23.139288 201.14401Q22.545538 201.65964 22.545538 202.44089Q22.545538 203.22214 23.139288 203.75339Q23.717413 204.26901 24.920538 204.26901ZM28.029913 197.97214L21.811163 197.97214L21.811163 197.01901L22.748663 197.01901Q22.092413 196.65964 21.889288 196.36276Q21.670538 196.05026 21.670538 195.67526Q21.670538 195.14401 21.998663 194.59714L22.983038 194.95651Q22.748663 195.34714 22.748663 195.72214Q22.748663 196.08151 22.967413 196.36276Q23.170538 196.62839 23.545538 196.73776Q24.108038 196.92526 24.764288 196.92526L28.029913 196.92526L28.029913 197.97214ZM21.498663 191.05026Q20.576788 191.05026 19.936163 190.59714Q19.295538 190.12839 19.295538 189.25339Q19.295538 188.44089 19.873663 187.90964Q20.451788 187.37839 21.561163 187.37839Q22.654913 187.37839 23.248663 187.92526Q23.826788 188.45651 23.826788 189.23776Q23.826788 190.01901 23.248663 190.53464Q22.670538 191.05026 21.498663 191.05026ZM20.014288 189.22214Q20.014288 189.61276 20.358038 189.87839Q20.701788 190.12839 21.608038 190.12839Q22.436163 190.12839 22.779913 189.87839Q23.108038 189.61276 23.108038 189.22214Q23.108038 188.81589 22.764288 188.56589Q22.420538 188.30026 21.529913 188.30026Q20.686163 188.30026 20.358038 188.56589Q20.014288 188.83151 20.014288 189.22214ZM28.342413 189.22214L19.295538 184.51901L19.295538 183.65964L28.342413 188.34714L28.342413 189.22214ZM26.014288 185.50339Q25.092413 185.50339 24.451788 185.05026Q23.811163 184.58151 23.811163 183.69089Q23.811163 182.87839 24.389288 182.34714Q24.951788 181.81589 26.076788 181.81589Q27.170538 181.81589 27.764288 182.36276Q28.342413 182.89401 28.342413 183.69089Q28.342413 184.45651 27.764288 184.98776Q27.186163 185.50339 26.014288 185.50339ZM24.529913 183.65964Q24.529913 184.06589 24.873663 184.33151Q25.217413 184.58151 26.123663 184.58151Q26.936163 184.58151 27.279913 184.31589Q27.623663 184.05026 27.623663 183.65964Q27.623663 183.26901 27.279913 183.00339Q26.936163 182.73776 26.029913 182.73776Q25.201788 182.73776 24.873663 183.00339Q24.529913 183.26901 24.529913 183.65964Z" fill-rule="nonzero"/><path fill="#000000" d="M50.547863 306.26562Q50.547863 304.73438 50.860363 303.8125Q51.172863 302.875 51.782238 302.375Q52.407238 301.875 53.344738 301.875Q54.032238 301.875 54.547863 302.15625Q55.079113 302.4375 55.422863 302.96875Q55.766613 303.48438 55.954113 304.23438Q56.141613 304.98438 56.141613 306.26562Q56.141613 307.78125 55.829113 308.70312Q55.532238 309.625 54.907238 310.14062Q54.297863 310.64062 53.344738 310.64062Q52.110363 310.64062 51.391613 309.75Q50.547863 308.6875 50.547863 306.26562ZM51.625988 306.26562Q51.625988 308.375 52.125988 309.07812Q52.625988 309.78125 53.344738 309.78125Q54.079113 309.78125 54.563488 309.07812Q55.063488 308.375 55.063488 306.26562Q55.063488 304.14062 54.563488 303.45312Q54.079113 302.75 53.329113 302.75Q52.610363 302.75 52.172863 303.35938Q51.625988 304.14062 51.625988 306.26562ZM58.141613 310.5L58.141613 309.29688L59.344738 309.29688L59.344738 310.5L58.141613 310.5ZM60.547863 308.25L61.657238 308.15625Q61.782238 308.96875 62.219738 309.375Q62.672863 309.78125 63.313488 309.78125Q64.06349 309.78125 64.59474 309.20312Q65.12599 308.625 65.12599 307.6875Q65.12599 306.78125 64.61037 306.26562Q64.11037 305.73438 63.282238 305.73438Q62.782238 305.73438 62.360363 305.96875Q61.954113 306.20312 61.719738 306.5625L60.735363 306.4375L61.563488 302.03125L65.84474 302.03125L65.84474 303.03125L62.407238 303.03125L61.954113 305.34375Q62.719738 304.79688 63.563488 304.79688Q64.68849 304.79688 65.45412 305.57812Q66.23537 306.35938 66.23537 307.59375Q66.23537 308.75 65.56349 309.60938Q64.73537 310.64062 63.313488 310.64062Q62.141613 310.64062 61.391613 309.98438Q60.657238 309.32812 60.547863 308.25ZM67.75099 303.96875Q67.75099 303.04688 68.20412 302.40625Q68.67287 301.76562 69.54787 301.76562Q70.36037 301.76562 70.89162 302.34375Q71.42287 302.92188 71.42287 304.03125Q71.42287 305.125 70.87599 305.71875Q70.34474 306.29688 69.56349 306.29688Q68.78224 306.29688 68.26662 305.71875Q67.75099 305.14062 67.75099 303.96875ZM69.57912 302.48438Q69.18849 302.48438 68.92287 302.82812Q68.67287 303.17188 68.67287 304.07812Q68.67287 304.90625 68.92287 305.25Q69.18849 305.57812 69.57912 305.57812Q69.98537 305.57812 70.23537 305.23438Q70.50099 304.89062 70.50099 304.0Q70.50099 303.15625 70.23537 302.82812Q69.96974 302.48438 69.57912 302.48438ZM69.57912 310.8125L74.28224 301.76562L75.14162 301.76562L70.45412 310.8125L69.57912 310.8125ZM73.29787 308.48438Q73.29787 307.5625 73.75099 306.92188Q74.21974 306.28125 75.11037 306.28125Q75.92287 306.28125 76.45412 306.85938Q76.98537 307.42188 76.98537 308.54688Q76.98537 309.64062 76.43849 310.23438Q75.90724 310.8125 75.11037 310.8125Q74.34474 310.8125 73.81349 310.23438Q73.29787 309.65625 73.29787 308.48438ZM75.14162 307.0Q74.73537 307.0 74.46974 307.34375Q74.21974 307.6875 74.21974 308.59375Q74.21974 309.40625 74.48537 309.75Q74.75099 310.09375 75.14162 310.09375Q75.53224 310.09375 75.79787 309.75Q76.06349 309.40625 76.06349 308.5Q76.06349 307.67188 75.79787 307.34375Q75.53224 307.0 75.14162 307.0Z" fill-rule="nonzero"/><path fill="#000000" d="M54.516613 280.02234L53.469738 280.02234L53.469738 273.3036Q53.079113 273.66296 52.454113 274.03796Q51.844738 274.39734 51.360363 274.5692L51.360363 273.5536Q52.235363 273.1317 52.891613 272.5536Q53.563488 271.95984 53.844738 271.39734L54.516613 271.39734L54.516613 280.02234ZM58.141613 280.02234L58.141613 278.8192L59.344738 278.8192L59.344738 280.02234L58.141613 280.02234ZM60.547863 275.78796Q60.547863 274.2567 60.860363 273.33484Q61.172863 272.39734 61.782238 271.89734Q62.407238 271.39734 63.344738 271.39734Q64.03224 271.39734 64.54787 271.6786Q65.07912 271.95984 65.42287 272.4911Q65.76662 273.0067 65.95412 273.7567Q66.14162 274.5067 66.14162 275.78796Q66.14162 277.3036 65.82912 278.22546Q65.53224 279.14734 64.90724 279.66296Q64.29787 280.16296 63.344738 280.16296Q62.110363 280.16296 61.391613 279.27234Q60.547863 278.20984 60.547863 275.78796ZM61.625988 275.78796Q61.625988 277.89734 62.125988 278.60046Q62.625988 279.3036 63.344738 279.3036Q64.07912 279.3036 64.56349 278.60046Q65.06349 277.89734 65.06349 275.78796Q65.06349 273.66296 64.56349 272.97546Q64.07912 272.27234 63.329113 272.27234Q62.610363 272.27234 62.172863 272.8817Q61.625988 273.66296 61.625988 275.78796ZM67.75099 273.4911Q67.75099 272.5692 68.20412 271.9286Q68.67287 271.28796 69.54787 271.28796Q70.36037 271.28796 70.89162 271.8661Q71.42287 272.4442 71.42287 273.5536Q71.42287 274.64734 70.87599 275.2411Q70.34474 275.8192 69.56349 275.8192Q68.78224 275.8192 68.26662 275.2411Q67.75099 274.66296 67.75099 273.4911ZM69.57912 272.0067Q69.18849 272.0067 68.92287 272.35046Q68.67287 272.6942 68.67287 273.60046Q68.67287 274.4286 68.92287 274.77234Q69.18849 275.10046 69.57912 275.10046Q69.98537 275.10046 70.23537 274.7567Q70.50099 274.41296 70.50099 273.52234Q70.50099 272.6786 70.23537 272.35046Q69.96974 272.0067 69.57912 272.0067ZM69.57912 280.33484L74.28224 271.28796L75.14162 271.28796L70.45412 280.33484L69.57912 280.33484ZM73.29787 278.0067Q73.29787 277.08484 73.75099 276.4442Q74.21974 275.8036 75.11037 275.8036Q75.92287 275.8036 76.45412 276.3817Q76.98537 276.9442 76.98537 278.0692Q76.98537 279.16296 76.43849 279.7567Q75.90724 280.33484 75.11037 280.33484Q74.34474 280.33484 73.81349 279.7567Q73.29787 279.1786 73.29787 278.0067ZM75.14162 276.52234Q74.73537 276.52234 74.46974 276.8661Q74.21974 277.20984 74.21974 278.1161Q74.21974 278.9286 74.48537 279.27234Q74.75099 279.6161 75.14162 279.6161Q75.53224 279.6161 75.79787 279.27234Q76.06349 278.9286 76.06349 278.02234Q76.06349 277.1942 75.79787 276.8661Q75.53224 276.52234 75.14162 276.52234Z" fill-rule="nonzero"/><path fill="#000000" d="M50.547863 207.00542L51.657238 206.91167Q51.782238 207.72417 52.219738 208.13042Q52.672863 208.53667 53.313488 208.53667Q54.063488 208.53667 54.594738 207.95854Q55.125988 207.38042 55.125988 206.44292Q55.125988 205.53667 54.610363 205.02104Q54.110363 204.48979 53.282238 204.48979Q52.782238 204.48979 52.360363 204.72417Q51.954113 204.95854 51.719738 205.31792L50.735363 205.19292L51.563488 200.78667L55.844738 200.78667L55.844738 201.78667L52.407238 201.78667L51.954113 204.09917Q52.719738 203.55229 53.563488 203.55229Q54.688488 203.55229 55.454113 204.33354Q56.235363 205.11479 56.235363 206.34917Q56.235363 207.50542 55.563488 208.36479Q54.735363 209.39604 53.313488 209.39604Q52.141613 209.39604 51.391613 208.73979Q50.657238 208.08354 50.547863 207.00542ZM58.141613 209.25542L58.141613 208.05229L59.344738 208.05229L59.344738 209.25542L58.141613 209.25542ZM60.547863 205.02104Q60.547863 203.48979 60.860363 202.56792Q61.172863 201.63042 61.782238 201.13042Q62.407238 200.63042 63.344738 200.63042Q64.03224 200.63042 64.54787 200.91167Q65.07912 201.19292 65.42287 201.72417Q65.76662 202.23979 65.95412 202.98979Q66.14162 203.73979 66.14162 205.02104Q66.14162 206.53667 65.82912 207.45854Q65.53224 208.38042 64.90724 208.89604Q64.29787 209.39604 63.344738 209.39604Q62.110363 209.39604 61.391613 208.50542Q60.547863 207.44292 60.547863 205.02104ZM61.625988 205.02104Q61.625988 207.13042 62.125988 207.83354Q62.625988 208.53667 63.344738 208.53667Q64.07912 208.53667 64.56349 207.83354Q65.06349 207.13042 65.06349 205.02104Q65.06349 202.89604 64.56349 202.20854Q64.07912 201.50542 63.329113 201.50542Q62.610363 201.50542 62.172863 202.11479Q61.625988 202.89604 61.625988 205.02104ZM67.75099 202.72417Q67.75099 201.80229 68.20412 201.16167Q68.67287 200.52104 69.54787 200.52104Q70.36037 200.52104 70.89162 201.09917Q71.42287 201.67729 71.42287 202.78667Q71.42287 203.88042 70.87599 204.47417Q70.34474 205.05229 69.56349 205.05229Q68.78224 205.05229 68.26662 204.47417Q67.75099 203.89604 67.75099 202.72417ZM69.57912 201.23979Q69.18849 201.23979 68.92287 201.58354Q68.67287 201.92729 68.67287 202.83354Q68.67287 203.66167 68.92287 204.00542Q69.18849 204.33354 69.57912 204.33354Q69.98537 204.33354 70.23537 203.98979Q70.50099 203.64604 70.50099 202.75542Q70.50099 201.91167 70.23537 201.58354Q69.96974 201.23979 69.57912 201.23979ZM69.57912 209.56792L74.28224 200.52104L75.14162 200.52104L70.45412 209.56792L69.57912 209.56792ZM73.29787 207.23979Q73.29787 206.31792 73.75099 205.67729Q74.21974 205.03667 75.11037 205.03667Q75.92287 205.03667 76.45412 205.61479Q76.98537 206.17729 76.98537 207.30229Q76.98537 208.39604 76.43849 208.98979Q75.90724 209.56792 75.11037 209.56792Q74.34474 209.56792 73.81349 208.98979Q73.29787 208.41167 73.29787 207.23979ZM75.14162 205.75542Q74.73537 205.75542 74.46974 206.09917Q74.21974 206.44292 74.21974 207.34917Q74.21974 208.16167 74.48537 208.50542Q74.75099 208.84917 75.14162 208.84917Q75.53224 208.84917 75.79787 208.50542Q76.06349 208.16167 76.06349 207.25542Q76.06349 206.42729 75.79787 206.09917Q75.53224 205.75542 75.14162 205.75542Z" fill-rule="nonzero"/><path fill="#000000" d="M47.516613 178.77777L46.469738 178.77777L46.469738 172.05902Q46.079113 172.4184 45.454113 172.7934Q44.844738 173.15277 44.360363 173.32465L44.360363 172.30902Q45.235363 171.88715 45.891613 171.30902Q46.563488 170.71527 46.844738 170.15277L47.516613 170.15277L47.516613 178.77777ZM50.547863 174.5434Q50.547863 173.01215 50.860363 172.09027Q51.172863 171.15277 51.782238 170.65277Q52.407238 170.15277 53.344738 170.15277Q54.032238 170.15277 54.547863 170.43402Q55.079113 170.71527 55.422863 171.24652Q55.766613 171.76215 55.954113 172.51215Q56.141613 173.26215 56.141613 174.5434Q56.141613 176.05902 55.829113 176.9809Q55.532238 177.90277 54.907238 178.4184Q54.297863 178.9184 53.344738 178.9184Q52.110363 178.9184 51.391613 178.02777Q50.547863 176.96527 50.547863 174.5434ZM51.625988 174.5434Q51.625988 176.65277 52.125988 177.3559Q52.625988 178.05902 53.344738 178.05902Q54.079113 178.05902 54.563488 177.3559Q55.063488 176.65277 55.063488 174.5434Q55.063488 172.4184 54.563488 171.7309Q54.079113 171.02777 53.329113 171.02777Q52.610363 171.02777 52.172863 171.63715Q51.625988 172.4184 51.625988 174.5434ZM58.141613 178.77777L58.141613 177.57465L59.344738 177.57465L59.344738 178.77777L58.141613 178.77777ZM60.547863 174.5434Q60.547863 173.01215 60.860363 172.09027Q61.172863 171.15277 61.782238 170.65277Q62.407238 170.15277 63.344738 170.15277Q64.03224 170.15277 64.54787 170.43402Q65.07912 170.71527 65.42287 171.24652Q65.76662 171.76215 65.95412 172.51215Q66.14162 173.26215 66.14162 174.5434Q66.14162 176.05902 65.82912 176.9809Q65.53224 177.90277 64.90724 178.4184Q64.29787 178.9184 63.344738 178.9184Q62.110363 178.9184 61.391613 178.02777Q60.547863 176.96527 60.547863 174.5434ZM61.625988 174.5434Q61.625988 176.65277 62.125988 177.3559Q62.625988 178.05902 63.344738 178.05902Q64.07912 178.05902 64.56349 177.3559Q65.06349 176.65277 65.06349 174.5434Q65.06349 172.4184 64.56349 171.7309Q64.07912 171.02777 63.329113 171.02777Q62.610363 171.02777 62.172863 171.63715Q61.625988 172.4184 61.625988 174.5434ZM67.75099 172.24652Q67.75099 171.32465 68.20412 170.68402Q68.67287 170.0434 69.54787 170.0434Q70.36037 170.0434 70.89162 170.62152Q71.42287 171.19965 71.42287 172.30902Q71.42287 173.40277 70.87599 173.99652Q70.34474 174.57465 69.56349 174.57465Q68.78224 174.57465 68.26662 173.99652Q67.75099 173.4184 67.75099 172.24652ZM69.57912 170.76215Q69.18849 170.76215 68.92287 171.1059Q68.67287 171.44965 68.67287 172.3559Q68.67287 173.18402 68.92287 173.52777Q69.18849 173.8559 69.57912 173.8559Q69.98537 173.8559 70.23537 173.51215Q70.50099 173.1684 70.50099 172.27777Q70.50099 171.43402 70.23537 171.1059Q69.96974 170.76215 69.57912 170.76215ZM69.57912 179.09027L74.28224 170.0434L75.14162 170.0434L70.45412 179.09027L69.57912 179.09027ZM73.29787 176.76215Q73.29787 175.84027 73.75099 175.19965Q74.21974 174.55902 75.11037 174.55902Q75.92287 174.55902 76.45412 175.13715Q76.98537 175.69965 76.98537 176.82465Q76.98537 177.9184 76.43849 178.51215Q75.90724 179.09027 75.11037 179.09027Q74.34474 179.09027 73.81349 178.51215Q73.29787 177.93402 73.29787 176.76215ZM75.14162 175.27777Q74.73537 175.27777 74.46974 175.62152Q74.21974 175.96527 74.21974 176.87152Q74.21974 177.68402 74.48537 178.02777Q74.75099 178.37152 75.14162 178.37152Q75.53224 178.37152 75.79787 178.02777Q76.06349 177.68402 76.06349 176.77777Q76.06349 175.94965 75.79787 175.62152Q75.53224 175.27777 75.14162 175.27777Z" fill-rule="nonzero"/><path fill="#000000" d="M43.547863 105.76084L44.657238 105.66709Q44.782238 106.47959 45.219738 106.88584Q45.672863 107.29209 46.313488 107.29209Q47.063488 107.29209 47.594738 106.71397Q48.125988 106.13584 48.125988 105.19834Q48.125988 104.29209 47.610363 103.77647Q47.110363 103.24522 46.282238 103.24522Q45.782238 103.24522 45.360363 103.47959Q44.954113 103.71397 44.719738 104.07334L43.735363 103.94834L44.563488 99.54209L48.844738 99.54209L48.844738 100.54209L45.407238 100.54209L44.954113 102.85459Q45.719738 102.30772 46.563488 102.30772Q47.688488 102.30772 48.454113 103.08897Q49.235363 103.87022 49.235363 105.10459Q49.235363 106.26084 48.563488 107.12022Q47.735363 108.15147 46.313488 108.15147Q45.141613 108.15147 44.391613 107.49522Q43.657238 106.83897 43.547863 105.76084ZM50.547863 103.77647Q50.547863 102.24522 50.860363 101.32334Q51.172863 100.38584 51.782238 99.88584Q52.407238 99.38584 53.344738 99.38584Q54.032238 99.38584 54.547863 99.66709Q55.079113 99.94834 55.422863 100.47959Q55.766613 100.99522 55.954113 101.74522Q56.141613 102.49522 56.141613 103.77647Q56.141613 105.29209 55.829113 106.21397Q55.532238 107.13584 54.907238 107.65147Q54.297863 108.15147 53.344738 108.15147Q52.110363 108.15147 51.391613 107.26084Q50.547863 106.19834 50.547863 103.77647ZM51.625988 103.77647Q51.625988 105.88584 52.125988 106.58897Q52.625988 107.29209 53.344738 107.29209Q54.079113 107.29209 54.563488 106.58897Q55.063488 105.88584 55.063488 103.77647Q55.063488 101.65147 54.563488 100.96397Q54.079113 100.26084 53.329113 100.26084Q52.610363 100.26084 52.172863 100.87022Q51.625988 101.65147 51.625988 103.77647ZM58.141613 108.01084L58.141613 106.80772L59.344738 106.80772L59.344738 108.01084L58.141613 108.01084ZM60.547863 103.77647Q60.547863 102.24522 60.860363 101.32334Q61.172863 100.38584 61.782238 99.88584Q62.407238 99.38584 63.344738 99.38584Q64.03224 99.38584 64.54787 99.66709Q65.07912 99.94834 65.42287 100.47959Q65.76662 100.99522 65.95412 101.74522Q66.14162 102.49522 66.14162 103.77647Q66.14162 105.29209 65.82912 106.21397Q65.53224 107.13584 64.90724 107.65147Q64.29787 108.15147 63.344738 108.15147Q62.110363 108.15147 61.391613 107.26084Q60.547863 106.19834 60.547863 103.77647ZM61.625988 103.77647Q61.625988 105.88584 62.125988 106.58897Q62.625988 107.29209 63.344738 107.29209Q64.07912 107.29209 64.56349 106.58897Q65.06349 105.88584 65.06349 103.77647Q65.06349 101.65147 64.56349 100.96397Q64.07912 100.26084 63.329113 100.26084Q62.610363 100.26084 62.172863 100.87022Q61.625988 101.65147 61.625988 103.77647ZM67.75099 101.47959Q67.75099 100.55772 68.20412 99.91709Q68.67287 99.27647 69.54787 99.27647Q70.36037 99.27647 70.89162 99.85459Q71.42287 100.43272 71.42287 101.54209Q71.42287 102.63584 70.87599 103.22959Q70.34474 103.80772 69.56349 103.80772Q68.78224 103.80772 68.26662 103.22959Q67.75099 102.65147 67.75099 101.47959ZM69.57912 99.99522Q69.18849 99.99522 68.92287 100.33897Q68.67287 100.68272 68.67287 101.58897Q68.67287 102.41709 68.92287 102.76084Q69.18849 103.08897 69.57912 103.08897Q69.98537 103.08897 70.23537 102.74522Q70.50099 102.40147 70.50099 101.51084Q70.50099 100.66709 70.23537 100.33897Q69.96974 99.99522 69.57912 99.99522ZM69.57912 108.32334L74.28224 99.27647L75.14162 99.27647L70.45412 108.32334L69.57912 108.32334ZM73.29787 105.99522Q73.29787 105.07334 73.75099 104.43272Q74.21974 103.79209 75.11037 103.79209Q75.92287 103.79209 76.45412 104.37022Q76.98537 104.93272 76.98537 106.05772Q76.98537 107.15147 76.43849 107.74522Q75.90724 108.32334 75.11037 108.32334Q74.34474 108.32334 73.81349 107.74522Q73.29787 107.16709 73.29787 105.99522ZM75.14162 104.51084Q74.73537 104.51084 74.46974 104.85459Q74.21974 105.19834 74.21974 106.10459Q74.21974 106.91709 74.48537 107.26084Q74.75099 107.60459 75.14162 107.60459Q75.53224 107.60459 75.79787 107.26084Q76.06349 106.91709 76.06349 106.01084Q76.06349 105.18272 75.79787 104.85459Q75.53224 104.51084 75.14162 104.51084Z" fill-rule="nonzero"/><path fill="#000000" d="M163.59213 321.25L164.7015 321.15625Q164.8265 321.96875 165.264 322.375Q165.71713 322.78125 166.35776 322.78125Q167.10776 322.78125 167.639 322.20312Q168.17026 321.625 168.17026 320.6875Q168.17026 319.78125 167.65463 319.26562Q167.15463 318.73438 166.3265 318.73438Q165.8265 318.73438 165.40463 318.96875Q164.99838 319.20312 164.764 319.5625L163.77963 319.4375L164.60776 315.03125L168.889 315.03125L168.889 316.03125L165.4515 316.03125L164.99838 318.34375Q165.764 317.79688 166.60776 317.79688Q167.73276 317.79688 168.49838 318.57812Q169.27963 319.35938 169.27963 320.59375Q169.27963 321.75 168.60776 322.60938Q167.77963 323.64062 166.35776 323.64062Q165.18588 323.64062 164.43588 322.98438Q163.7015 322.32812 163.59213 321.25Z" fill-rule="nonzero"/><path fill="#000000" d="M226.50322 323.5L225.45634 323.5L225.45634 316.78125Q225.06572 317.14062 224.44072 317.51562Q223.83134 317.875 223.34697 318.04688L223.34697 317.03125Q224.22197 316.60938 224.87822 316.03125Q225.5501 315.4375 225.83134 314.875L226.50322 314.875L226.50322 323.5ZM229.53447 319.26562Q229.53447 317.73438 229.84697 316.8125Q230.15947 315.875 230.76884 315.375Q231.39384 314.875 232.33134 314.875Q233.01884 314.875 233.53447 315.15625Q234.06572 315.4375 234.40947 315.96875Q234.75322 316.48438 234.94072 317.23438Q235.12822 317.98438 235.12822 319.26562Q235.12822 320.78125 234.81572 321.70312Q234.51884 322.625 233.89384 323.14062Q233.28447 323.64062 232.33134 323.64062Q231.09697 323.64062 230.37822 322.75Q229.53447 321.6875 229.53447 319.26562ZM230.6126 319.26562Q230.6126 321.375 231.1126 322.07812Q231.6126 322.78125 232.33134 322.78125Q233.06572 322.78125 233.5501 322.07812Q234.0501 321.375 234.0501 319.26562Q234.0501 317.14062 233.5501 316.45312Q233.06572 315.75 232.31572 315.75Q231.59697 315.75 231.15947 316.35938Q230.6126 317.14062 230.6126 319.26562Z" fill-rule="nonzero"/><path fill="#000000" d="M367.52106 321.25L368.63043 321.15625Q368.75543 321.96875 369.19293 322.375Q369.64606 322.78125 370.28668 322.78125Q371.03668 322.78125 371.56793 322.20312Q372.09918 321.625 372.09918 320.6875Q372.09918 319.78125 371.58356 319.26562Q371.08356 318.73438 370.25543 318.73438Q369.75543 318.73438 369.33356 318.96875Q368.9273 319.20312 368.69293 319.5625L367.70856 319.4375L368.53668 315.03125L372.81793 315.03125L372.81793 316.03125L369.38043 316.03125L368.9273 318.34375Q369.69293 317.79688 370.53668 317.79688Q371.66168 317.79688 372.4273 318.57812Q373.20856 319.35938 373.20856 320.59375Q373.20856 321.75 372.53668 322.60938Q371.70856 323.64062 370.28668 323.64062Q369.1148 323.64062 368.3648 322.98438Q367.63043 322.32812 367.52106 321.25ZM374.52106 319.26562Q374.52106 317.73438 374.83356 316.8125Q375.14606 315.875 375.75543 315.375Q376.38043 314.875 377.31793 314.875Q378.00543 314.875 378.52106 315.15625Q379.0523 315.4375 379.39606 315.96875Q379.7398 316.48438 379.9273 317.23438Q380.1148 317.98438 380.1148 319.26562Q380.1148 320.78125 379.8023 321.70312Q379.50543 322.625 378.88043 323.14062Q378.27106 323.64062 377.31793 323.64062Q376.08356 323.64062 375.3648 322.75Q374.52106 321.6875 374.52106 319.26562ZM375.59918 319.26562Q375.59918 321.375 376.09918 322.07812Q376.59918 322.78125 377.31793 322.78125Q378.0523 322.78125 378.53668 322.07812Q379.03668 321.375 379.03668 319.26562Q379.03668 317.14062 378.53668 316.45312Q378.0523 315.75 377.3023 315.75Q376.58356 315.75 376.14606 316.35938Q375.59918 317.14062 375.59918 319.26562Z" fill-rule="nonzero"/><path fill="#000000" d="M430.43216 323.5L429.38528 323.5L429.38528 316.78125Q428.99466 317.14062 428.36966 317.51562Q427.76028 317.875 427.2759 318.04688L427.2759 317.03125Q428.1509 316.60938 428.80716 316.03125Q429.47903 315.4375 429.76028 314.875L430.43216 314.875L430.43216 323.5ZM433.4634 319.26562Q433.4634 317.73438 433.7759 316.8125Q434.0884 315.875 434.69778 315.375Q435.32278 314.875 436.26028 314.875Q436.94778 314.875 437.4634 315.15625Q437.99466 315.4375 438.3384 315.96875Q438.68216 316.48438 438.86966 317.23438Q439.05716 317.98438 439.05716 319.26562Q439.05716 320.78125 438.74466 321.70312Q438.44778 322.625 437.82278 323.14062Q437.2134 323.64062 436.26028 323.64062Q435.0259 323.64062 434.30716 322.75Q433.4634 321.6875 433.4634 319.26562ZM434.54153 319.26562Q434.54153 321.375 435.04153 322.07812Q435.54153 322.78125 436.26028 322.78125Q436.99466 322.78125 437.47903 322.07812Q437.97903 321.375 437.97903 319.26562Q437.97903 317.14062 437.47903 316.45312Q436.99466 315.75 436.24466 315.75Q435.5259 315.75 435.0884 316.35938Q434.54153 317.14062 434.54153 319.26562ZM440.4634 319.26562Q440.4634 317.73438 440.7759 316.8125Q441.0884 315.875 441.69778 315.375Q442.32278 314.875 443.26028 314.875Q443.94778 314.875 444.4634 315.15625Q444.99466 315.4375 445.3384 315.96875Q445.68216 316.48438 445.86966 317.23438Q446.05716 317.98438 446.05716 319.26562Q446.05716 320.78125 445.74466 321.70312Q445.44778 322.625 444.82278 323.14062Q444.2134 323.64062 443.26028 323.64062Q442.0259 323.64062 441.30716 322.75Q440.4634 321.6875 440.4634 319.26562ZM441.54153 319.26562Q441.54153 321.375 442.04153 322.07812Q442.54153 322.78125 443.26028 322.78125Q443.99466 322.78125 444.47903 322.07812Q444.97903 321.375 444.97903 319.26562Q444.97903 317.14062 444.47903 316.45312Q443.99466 315.75 443.24466 315.75Q442.5259 315.75 442.0884 316.35938Q441.54153 317.14062 441.54153 319.26562Z" fill-rule="nonzero"/><path fill="#000000" d="M571.45 321.25L572.5594 321.15625Q572.6844 321.96875 573.1219 322.375Q573.575 322.78125 574.21564 322.78125Q574.96564 322.78125 575.4969 322.20312Q576.02814 321.625 576.02814 320.6875Q576.02814 319.78125 575.5125 319.26562Q575.0125 318.73438 574.1844 318.73438Q573.6844 318.73438 573.2625 318.96875Q572.85626 319.20312 572.6219 319.5625L571.6375 319.4375L572.46564 315.03125L576.7469 315.03125L576.7469 316.03125L573.3094 316.03125L572.85626 318.34375Q573.6219 317.79688 574.46564 317.79688Q575.59064 317.79688 576.35626 318.57812Q577.1375 319.35938 577.1375 320.59375Q577.1375 321.75 576.46564 322.60938Q575.6375 323.64062 574.21564 323.64062Q573.04376 323.64062 572.29376 322.98438Q571.5594 322.32812 571.45 321.25ZM578.45 319.26562Q578.45 317.73438 578.7625 316.8125Q579.075 315.875 579.6844 315.375Q580.3094 314.875 581.2469 314.875Q581.9344 314.875 582.45 315.15625Q582.98126 315.4375 583.325 315.96875Q583.66876 316.48438 583.85626 317.23438Q584.04376 317.98438 584.04376 319.26562Q584.04376 320.78125 583.73126 321.70312Q583.4344 322.625 582.8094 323.14062Q582.2 323.64062 581.2469 323.64062Q580.0125 323.64062 579.29376 322.75Q578.45 321.6875 578.45 319.26562ZM579.52814 319.26562Q579.52814 321.375 580.02814 322.07812Q580.52814 322.78125 581.2469 322.78125Q581.98126 322.78125 582.46564 322.07812Q582.96564 321.375 582.96564 319.26562Q582.96564 317.14062 582.46564 316.45312Q581.98126 315.75 581.23126 315.75Q580.5125 315.75 580.075 316.35938Q579.52814 317.14062 579.52814 319.26562ZM585.45 319.26562Q585.45 317.73438 585.7625 316.8125Q586.075 315.875 586.6844 315.375Q587.3094 314.875 588.2469 314.875Q588.9344 314.875 589.45 315.15625Q589.98126 315.4375 590.325 315.96875Q590.66876 316.48438 590.85626 317.23438Q591.04376 317.98438 591.04376 319.26562Q591.04376 320.78125 590.73126 321.70312Q590.4344 322.625 589.8094 323.14062Q589.2 323.64062 588.2469 323.64062Q587.0125 323.64062 586.29376 322.75Q585.45 321.6875 585.45 319.26562ZM586.52814 319.26562Q586.52814 321.375 587.02814 322.07812Q587.52814 322.78125 588.2469 322.78125Q588.98126 322.78125 589.46564 322.07812Q589.96564 321.375 589.96564 319.26562Q589.96564 317.14062 589.46564 316.45312Q588.98126 315.75 588.23126 315.75Q587.5125 315.75 587.075 316.35938Q586.52814 317.14062 586.52814 319.26562Z" fill-rule="nonzero"/><path stroke="#ff0000" stroke-width="4.0" stroke-linecap="butt" d="M200.73996 60.445835L212.73996 60.445835" fill-rule="nonzero"/><path fill="#1a1a1a" d="M221.61496 64.44583L221.61496 55.85208L224.84933 55.85208Q225.83371 55.85208 226.42746 56.117706Q227.02121 56.38333 227.34933 56.930206Q227.69308 57.461456 227.69308 58.055206Q227.69308 58.60208 227.39621 59.086456Q227.09933 59.57083 226.48996 59.867706Q227.27121 60.10208 227.67746 60.66458Q228.09933 61.211456 228.09933 61.961456Q228.09933 62.555206 227.84933 63.086456Q227.59933 63.60208 227.22433 63.88333Q226.84933 64.16458 226.27121 64.30521Q225.70871 64.44583 224.89621 64.44583L221.61496 64.44583ZM222.75558 59.461456L224.61496 59.461456Q225.36496 59.461456 225.69308 59.367706Q226.13058 59.242706 226.34933 58.94583Q226.56808 58.63333 226.56808 58.180206Q226.56808 57.75833 226.36496 57.430206Q226.16183 57.10208 225.77121 56.992706Q225.39621 56.867706 224.47433 56.867706L222.75558 56.867706L222.75558 59.461456ZM222.75558 63.430206L224.89621 63.430206Q225.44308 63.430206 225.66183 63.38333Q226.06808 63.32083 226.31808 63.16458Q226.58371 62.992706 226.75558 62.680206Q226.92746 62.367706 226.92746 61.961456Q226.92746 61.47708 226.67746 61.117706Q226.44308 60.75833 226.00558 60.617706Q225.56808 60.47708 224.73996 60.47708L222.75558 60.47708L222.75558 63.430206ZM233.59933 63.680206Q233.00558 64.18021 232.45871 64.38333Q231.92746 64.58646 231.30246 64.58646Q230.27121 64.58646 229.72433 64.08646Q229.17746 63.586456 229.17746 62.805206Q229.17746 62.35208 229.38058 61.97708Q229.58371 61.586456 229.92746 61.367706Q230.27121 61.13333 230.69308 61.023956Q230.98996 60.930206 231.63058 60.85208Q232.89621 60.711456 233.50558 60.492706Q233.50558 60.273956 233.50558 60.22708Q233.50558 59.57083 233.20871 59.305206Q232.80246 58.961456 232.00558 58.961456Q231.27121 58.961456 230.91183 59.22708Q230.55246 59.47708 230.38058 60.13333L229.34933 59.992706Q229.48996 59.336456 229.81808 58.930206Q230.14621 58.523956 230.75558 58.305206Q231.36496 58.086456 232.16183 58.086456Q232.95871 58.086456 233.45871 58.273956Q233.95871 58.461456 234.19308 58.742706Q234.42746 59.023956 234.52121 59.461456Q234.56808 59.72708 234.56808 60.430206L234.56808 61.836456Q234.56808 63.305206 234.63058 63.69583Q234.70871 64.08646 234.91183 64.44583L233.80246 64.44583Q233.64621 64.11771 233.59933 63.680206ZM233.50558 61.32083Q232.92746 61.555206 231.78683 61.72708Q231.13058 61.82083 230.86496 61.94583Q230.59933 62.055206 230.44308 62.273956Q230.30246 62.492706 230.30246 62.773956Q230.30246 63.19583 230.61496 63.47708Q230.94308 63.75833 231.55246 63.75833Q232.16183 63.75833 232.63058 63.492706Q233.11496 63.22708 233.33371 62.75833Q233.50558 62.398956 233.50558 61.711456L233.50558 61.32083ZM236.11496 62.586456L237.14621 62.430206Q237.23996 63.055206 237.63058 63.38333Q238.03683 63.711456 238.77121 63.711456Q239.48996 63.711456 239.83371 63.430206Q240.19308 63.13333 240.19308 62.72708Q240.19308 62.367706 239.88058 62.16458Q239.66183 62.023956 238.80246 61.805206Q237.64621 61.50833 237.19308 61.305206Q236.75558 61.086456 236.52121 60.711456Q236.28683 60.336456 236.28683 59.867706Q236.28683 59.461456 236.47433 59.10208Q236.66183 58.742706 236.98996 58.50833Q237.23996 58.336456 237.66183 58.211456Q238.08371 58.086456 238.58371 58.086456Q239.30246 58.086456 239.84933 58.305206Q240.41183 58.50833 240.67746 58.867706Q240.94308 59.22708 241.03683 59.82083L240.00558 59.961456Q239.94308 59.492706 239.59933 59.22708Q239.27121 58.94583 238.64621 58.94583Q237.92746 58.94583 237.61496 59.19583Q237.30246 59.430206 237.30246 59.75833Q237.30246 59.961456 237.42746 60.117706Q237.56808 60.28958 237.83371 60.398956Q237.98996 60.461456 238.77121 60.66458Q239.89621 60.97708 240.33371 61.16458Q240.77121 61.35208 241.02121 61.711456Q241.27121 62.07083 241.27121 62.617706Q241.27121 63.148956 240.95871 63.617706Q240.66183 64.07083 240.08371 64.33646Q239.50558 64.58646 238.77121 64.58646Q237.55246 64.58646 236.91183 64.08646Q236.28683 63.57083 236.11496 62.586456ZM246.78683 62.44583L247.88058 62.57083Q247.63058 63.523956 246.92746 64.05521Q246.22433 64.58646 245.14621 64.58646Q243.78683 64.58646 242.97433 63.742706Q242.17746 62.898956 242.17746 61.38333Q242.17746 59.82083 242.98996 58.961456Q243.80246 58.086456 245.08371 58.086456Q246.33371 58.086456 247.11496 58.930206Q247.91183 59.773956 247.91183 61.32083Q247.91183 61.41458 247.91183 61.60208L243.27121 61.60208Q243.33371 62.63333 243.84933 63.180206Q244.36496 63.711456 245.14621 63.711456Q245.72433 63.711456 246.13058 63.41458Q246.55246 63.10208 246.78683 62.44583ZM243.33371 60.742706L246.80246 60.742706Q246.73996 59.94583 246.41183 59.555206Q245.89621 58.94583 245.09933 58.94583Q244.36496 58.94583 243.86496 59.430206Q243.38058 59.91458 243.33371 60.742706ZM249.50558 64.44583L249.50558 55.85208L250.56808 55.85208L250.56808 64.44583L249.50558 64.44583ZM252.53683 57.07083L252.53683 55.85208L253.59933 55.85208L253.59933 57.07083L252.53683 57.07083ZM252.53683 64.44583L252.53683 58.22708L253.59933 58.22708L253.59933 64.44583L252.53683 64.44583ZM255.53683 64.44583L255.53683 58.22708L256.47433 58.22708L256.47433 59.10208Q257.16183 58.086456 258.4587 58.086456Q259.0212 58.086456 259.48996 58.28958Q259.97433 58.492706 260.2087 58.82083Q260.44308 59.148956 260.53683 59.586456Q260.5837 59.88333 260.5837 60.617706L260.5837 64.44583L259.53683 64.44583L259.53683 60.66458Q259.53683 60.00833 259.41183 59.69583Q259.28683 59.38333 258.97433 59.19583Q258.66183 58.992706 258.23996 58.992706Q257.56808 58.992706 257.06808 59.430206Q256.5837 59.85208 256.5837 61.03958L256.5837 64.44583L255.53683 64.44583ZM266.78683 62.44583L267.88058 62.57083Q267.63058 63.523956 266.92746 64.05521Q266.22433 64.58646 265.1462 64.58646Q263.78683 64.58646 262.97433 63.742706Q262.17746 62.898956 262.17746 61.38333Q262.17746 59.82083 262.98996 58.961456Q263.80246 58.086456 265.0837 58.086456Q266.3337 58.086456 267.11496 58.930206Q267.91183 59.773956 267.91183 61.32083Q267.91183 61.41458 267.91183 61.60208L263.2712 61.60208Q263.3337 62.63333 263.84933 63.180206Q264.36496 63.711456 265.1462 63.711456Q265.72433 63.711456 266.13058 63.41458Q266.55246 63.10208 266.78683 62.44583ZM263.3337 60.742706L266.80246 60.742706Q266.73996 59.94583 266.41183 59.555206Q265.8962 58.94583 265.09933 58.94583Q264.36496 58.94583 263.86496 59.430206Q263.38058 59.91458 263.3337 60.742706Z" fill-rule="nonzero"/><path stroke="#38761d" stroke-width="4.0" stroke-linecap="butt" d="M284.73996 60.445835L296.73996 60.445835" fill-rule="nonzero"/><path fill="#1a1a1a" d="M307.84933 64.44583L307.84933 56.867706L305.0212 56.867706L305.0212 55.85208L311.8337 55.85208L311.8337 56.867706L308.98996 56.867706L308.98996 64.44583L307.84933 64.44583ZM312.5212 64.44583L312.5212 58.22708L313.47433 58.22708L313.47433 59.16458Q313.8337 58.50833 314.13058 58.305206Q314.44308 58.086456 314.81808 58.086456Q315.34933 58.086456 315.8962 58.41458L315.53683 59.398956Q315.1462 59.16458 314.7712 59.16458Q314.41183 59.16458 314.13058 59.38333Q313.86496 59.586456 313.75558 59.961456Q313.56808 60.523956 313.56808 61.180206L313.56808 64.44583L312.5212 64.44583ZM320.59933 63.680206Q320.00558 64.18021 319.4587 64.38333Q318.92746 64.58646 318.30246 64.58646Q317.2712 64.58646 316.72433 64.08646Q316.17746 63.586456 316.17746 62.805206Q316.17746 62.35208 316.38058 61.97708Q316.5837 61.586456 316.92746 61.367706Q317.2712 61.13333 317.69308 61.023956Q317.98996 60.930206 318.63058 60.85208Q319.8962 60.711456 320.50558 60.492706Q320.50558 60.273956 320.50558 60.22708Q320.50558 59.57083 320.2087 59.305206Q319.80246 58.961456 319.00558 58.961456Q318.2712 58.961456 317.91183 59.22708Q317.55246 59.47708 317.38058 60.13333L316.34933 59.992706Q316.48996 59.336456 316.81808 58.930206Q317.1462 58.523956 317.75558 58.305206Q318.36496 58.086456 319.16183 58.086456Q319.9587 58.086456 320.4587 58.273956Q320.9587 58.461456 321.19308 58.742706Q321.42746 59.023956 321.5212 59.461456Q321.56808 59.72708 321.56808 60.430206L321.56808 61.836456Q321.56808 63.305206 321.63058 63.69583Q321.7087 64.08646 321.91183 64.44583L320.80246 64.44583Q320.6462 64.11771 320.59933 63.680206ZM320.50558 61.32083Q319.92746 61.555206 318.78683 61.72708Q318.13058 61.82083 317.86496 61.94583Q317.59933 62.055206 317.44308 62.273956Q317.30246 62.492706 317.30246 62.773956Q317.30246 63.19583 317.61496 63.47708Q317.94308 63.75833 318.55246 63.75833Q319.16183 63.75833 319.63058 63.492706Q320.11496 63.22708 320.3337 62.75833Q320.50558 62.398956 320.50558 61.711456L320.50558 61.32083ZM323.53683 64.44583L323.53683 58.22708L324.47433 58.22708L324.47433 59.10208Q325.16183 58.086456 326.4587 58.086456Q327.0212 58.086456 327.48996 58.28958Q327.97433 58.492706 328.2087 58.82083Q328.44308 59.148956 328.53683 59.586456Q328.5837 59.88333 328.5837 60.617706L328.5837 64.44583L327.53683 64.44583L327.53683 60.66458Q327.53683 60.00833 327.41183 59.69583Q327.28683 59.38333 326.97433 59.19583Q326.66183 58.992706 326.23996 58.992706Q325.56808 58.992706 325.06808 59.430206Q324.5837 59.85208 324.5837 61.03958L324.5837 64.44583L323.53683 64.44583ZM330.11496 62.586456L331.1462 62.430206Q331.23996 63.055206 331.63058 63.38333Q332.03683 63.711456 332.7712 63.711456Q333.48996 63.711456 333.8337 63.430206Q334.19308 63.13333 334.19308 62.72708Q334.19308 62.367706 333.88058 62.16458Q333.66183 62.023956 332.80246 61.805206Q331.6462 61.50833 331.19308 61.305206Q330.75558 61.086456 330.5212 60.711456Q330.28683 60.336456 330.28683 59.867706Q330.28683 59.461456 330.47433 59.10208Q330.66183 58.742706 330.98996 58.50833Q331.23996 58.336456 331.66183 58.211456Q332.0837 58.086456 332.5837 58.086456Q333.30246 58.086456 333.84933 58.305206Q334.41183 58.50833 334.67746 58.867706Q334.94308 59.22708 335.03683 59.82083L334.00558 59.961456Q333.94308 59.492706 333.59933 59.22708Q333.2712 58.94583 332.6462 58.94583Q331.92746 58.94583 331.61496 59.19583Q331.30246 59.430206 331.30246 59.75833Q331.30246 59.961456 331.42746 60.117706Q331.56808 60.28958 331.8337 60.398956Q331.98996 60.461456 332.7712 60.66458Q333.8962 60.97708 334.3337 61.16458Q334.7712 61.35208 335.0212 61.711456Q335.2712 62.07083 335.2712 62.617706Q335.2712 63.148956 334.9587 63.617706Q334.66183 64.07083 334.0837 64.33646Q333.50558 64.58646 332.7712 64.58646Q331.55246 64.58646 330.91183 64.08646Q330.28683 63.57083 330.11496 62.586456ZM336.78683 64.44583L336.78683 59.03958L335.84933 59.03958L335.84933 58.22708L336.78683 58.22708L336.78683 57.555206Q336.78683 56.930206 336.8962 56.63333Q337.05246 56.211456 337.42746 55.961456Q337.81808 55.711456 338.50558 55.711456Q338.9587 55.711456 339.48996 55.82083L339.3337 56.72708Q339.00558 56.680206 338.7087 56.680206Q338.22433 56.680206 338.0212 56.88333Q337.8337 57.086456 337.8337 57.648956L337.8337 58.22708L339.05246 58.22708L339.05246 59.03958L337.8337 59.03958L337.8337 64.44583L336.78683 64.44583ZM343.78683 62.44583L344.88058 62.57083Q344.63058 63.523956 343.92746 64.05521Q343.22433 64.58646 342.1462 64.58646Q340.78683 64.58646 339.97433 63.742706Q339.17746 62.898956 339.17746 61.38333Q339.17746 59.82083 339.98996 58.961456Q340.80246 58.086456 342.0837 58.086456Q343.3337 58.086456 344.11496 58.930206Q344.91183 59.773956 344.91183 61.32083Q344.91183 61.41458 344.91183 61.60208L340.2712 61.60208Q340.3337 62.63333 340.84933 63.180206Q341.36496 63.711456 342.1462 63.711456Q342.72433 63.711456 343.13058 63.41458Q343.55246 63.10208 343.78683 62.44583ZM340.3337 60.742706L343.80246 60.742706Q343.73996 59.94583 343.41183 59.555206Q342.8962 58.94583 342.09933 58.94583Q341.36496 58.94583 340.86496 59.430206Q340.38058 59.91458 340.3337 60.742706ZM346.5212 64.44583L346.5212 58.22708L347.47433 58.22708L347.47433 59.16458Q347.8337 58.50833 348.13058 58.305206Q348.44308 58.086456 348.81808 58.086456Q349.34933 58.086456 349.8962 58.41458L349.53683 59.398956Q349.1462 59.16458 348.7712 59.16458Q348.41183 59.16458 348.13058 59.38333Q347.86496 59.586456 347.75558 59.961456Q347.56808 60.523956 347.56808 61.180206L347.56808 64.44583L346.5212 64.44583ZM353.50558 64.44583L353.50558 55.85208L354.56808 55.85208L354.56808 64.44583L353.50558 64.44583ZM360.78683 62.44583L361.88058 62.57083Q361.63058 63.523956 360.92746 64.05521Q360.22433 64.58646 359.1462 64.58646Q357.78683 64.58646 356.97433 63.742706Q356.17746 62.898956 356.17746 61.38333Q356.17746 59.82083 356.98996 58.961456Q357.80246 58.086456 359.0837 58.086456Q360.3337 58.086456 361.11496 58.930206Q361.91183 59.773956 361.91183 61.32083Q361.91183 61.41458 361.91183 61.60208L357.2712 61.60208Q357.3337 62.63333 357.84933 63.180206Q358.36496 63.711456 359.1462 63.711456Q359.72433 63.711456 360.13058 63.41458Q360.55246 63.10208 360.78683 62.44583ZM357.3337 60.742706L360.80246 60.742706Q360.73996 59.94583 360.41183 59.555206Q359.8962 58.94583 359.09933 58.94583Q358.36496 58.94583 357.86496 59.430206Q357.38058 59.91458 357.3337 60.742706ZM367.59933 63.680206Q367.00558 64.18021 366.4587 64.38333Q365.92746 64.58646 365.30246 64.58646Q364.2712 64.58646 363.72433 64.08646Q363.17746 63.586456 363.17746 62.805206Q363.17746 62.35208 363.38058 61.97708Q363.5837 61.586456 363.92746 61.367706Q364.2712 61.13333 364.69308 61.023956Q364.98996 60.930206 365.63058 60.85208Q366.8962 60.711456 367.50558 60.492706Q367.50558 60.273956 367.50558 60.22708Q367.50558 59.57083 367.2087 59.305206Q366.80246 58.961456 366.00558 58.961456Q365.2712 58.961456 364.91183 59.22708Q364.55246 59.47708 364.38058 60.13333L363.34933 59.992706Q363.48996 59.336456 363.81808 58.930206Q364.1462 58.523956 364.75558 58.305206Q365.36496 58.086456 366.16183 58.086456Q366.9587 58.086456 367.4587 58.273956Q367.9587 58.461456 368.19308 58.742706Q368.42746 59.023956 368.5212 59.461456Q368.56808 59.72708 368.56808 60.430206L368.56808 61.836456Q368.56808 63.305206 368.63058 63.69583Q368.7087 64.08646 368.91183 64.44583L367.80246 64.44583Q367.6462 64.11771 367.59933 63.680206ZM367.50558 61.32083Q366.92746 61.555206 365.78683 61.72708Q365.13058 61.82083 364.86496 61.94583Q364.59933 62.055206 364.44308 62.273956Q364.30246 62.492706 364.30246 62.773956Q364.30246 63.19583 364.61496 63.47708Q364.94308 63.75833 365.55246 63.75833Q366.16183 63.75833 366.63058 63.492706Q367.11496 63.22708 367.3337 62.75833Q367.50558 62.398956 367.50558 61.711456L367.50558 61.32083ZM370.5212 64.44583L370.5212 58.22708L371.47433 58.22708L371.47433 59.16458Q371.8337 58.50833 372.13058 58.305206Q372.44308 58.086456 372.81808 58.086456Q373.34933 58.086456 373.8962 58.41458L373.53683 59.398956Q373.1462 59.16458 372.7712 59.16458Q372.41183 59.16458 372.13058 59.38333Q371.86496 59.586456 371.75558 59.961456Q371.56808 60.523956 371.56808 61.180206L371.56808 64.44583L370.5212 64.44583ZM374.53683 64.44583L374.53683 58.22708L375.47433 58.22708L375.47433 59.10208Q376.16183 58.086456 377.4587 58.086456Q378.0212 58.086456 378.48996 58.28958Q378.97433 58.492706 379.2087 58.82083Q379.44308 59.148956 379.53683 59.586456Q379.5837 59.88333 379.5837 60.617706L379.5837 64.44583L378.53683 64.44583L378.53683 60.66458Q378.53683 60.00833 378.41183 59.69583Q378.28683 59.38333 377.97433 59.19583Q377.66183 58.992706 377.23996 58.992706Q376.56808 58.992706 376.06808 59.430206Q375.5837 59.85208 375.5837 61.03958L375.5837 64.44583L374.53683 64.44583ZM381.53683 57.07083L381.53683 55.85208L382.59933 55.85208L382.59933 57.07083L381.53683 57.07083ZM381.53683 64.44583L381.53683 58.22708L382.59933 58.22708L382.59933 64.44583L381.53683 64.44583ZM384.53683 64.44583L384.53683 58.22708L385.47433 58.22708L385.47433 59.10208Q386.16183 58.086456 387.4587 58.086456Q388.0212 58.086456 388.48996 58.28958Q388.97433 58.492706 389.2087 58.82083Q389.44308 59.148956 389.53683 59.586456Q389.5837 59.88333 389.5837 60.617706L389.5837 64.44583L388.53683 64.44583L388.53683 60.66458Q388.53683 60.00833 388.41183 59.69583Q388.28683 59.38333 387.97433 59.19583Q387.66183 58.992706 387.23996 58.992706Q386.56808 58.992706 386.06808 59.430206Q385.5837 59.85208 385.5837 61.03958L385.5837 64.44583L384.53683 64.44583ZM391.3337 64.96146L392.36496 65.11771Q392.42746 65.58646 392.72433 65.80521Q393.11496 66.10208 393.78683 66.10208Q394.5212 66.10208 394.91183 65.80521Q395.31808 65.50833 395.4587 64.99271Q395.55246 64.66458 395.53683 63.63333Q394.84933 64.44583 393.81808 64.44583Q392.53683 64.44583 391.8337 63.523956Q391.13058 62.586456 391.13058 61.305206Q391.13058 60.41458 391.44308 59.66458Q391.7712 58.898956 392.38058 58.492706Q392.98996 58.086456 393.81808 58.086456Q394.92746 58.086456 395.6462 58.97708L395.6462 58.22708L396.61496 58.22708L396.61496 63.60208Q396.61496 65.05521 396.31808 65.66458Q396.0212 66.27396 395.38058 66.61771Q394.73996 66.97708 393.80246 66.97708Q392.69308 66.97708 392.00558 66.47708Q391.31808 65.97708 391.3337 64.96146ZM392.2087 61.22708Q392.2087 62.44583 392.69308 63.00833Q393.17746 63.57083 393.91183 63.57083Q394.6462 63.57083 395.13058 63.00833Q395.63058 62.44583 395.63058 61.25833Q395.63058 60.117706 395.11496 59.53958Q394.61496 58.961456 393.8962 58.961456Q393.19308 58.961456 392.69308 59.53958Q392.2087 60.10208 392.2087 61.22708Z" fill-rule="nonzero"/><path fill="#757575" d="M22.217405 36.079166L22.217405 23.454166L17.498655 23.454166L17.498655 21.766666L28.842405 21.766666L28.842405 23.454166L24.10803 23.454166L24.10803 36.079166L22.217405 36.079166ZM30.32678 36.079166L30.32678 25.704166L31.904905 25.704166L31.904905 27.282291Q32.514282 26.172916 33.029907 25.829166Q33.545532 25.469791 34.154907 25.469791Q35.045532 25.469791 35.967407 26.032291L35.358032 27.672916Q34.717407 27.282291 34.076782 27.282291Q33.498657 27.282291 33.029907 27.641666Q32.576782 27.985416 32.373657 28.594791Q32.092407 29.532291 32.092407 30.641666L32.092407 36.079166L30.32678 36.079166ZM44.123657 34.797916Q43.139282 35.62604 42.233032 35.96979Q41.326782 36.31354 40.295532 36.31354Q38.592407 36.31354 37.670532 35.485416Q36.748657 34.641666 36.748657 33.34479Q36.748657 32.579166 37.092407 31.954166Q37.451782 31.329166 38.014282 30.954166Q38.576782 30.563541 39.279907 30.360416Q39.795532 30.235416 40.842407 30.094791Q42.967407 29.844791 43.967407 29.501041Q43.983032 29.141666 43.983032 29.032291Q43.983032 27.969791 43.483032 27.516666Q42.811157 26.922916 41.483032 26.922916Q40.233032 26.922916 39.639282 27.360416Q39.061157 27.797916 38.779907 28.907291L37.061157 28.672916Q37.295532 27.563541 37.826782 26.891666Q38.358032 26.204166 39.373657 25.844791Q40.389282 25.469791 41.733032 25.469791Q43.061157 25.469791 43.889282 25.782291Q44.717407 26.094791 45.108032 26.579166Q45.498657 27.047916 45.654907 27.766666Q45.748657 28.219791 45.748657 29.391666L45.748657 31.735416Q45.748657 34.18854 45.858032 34.84479Q45.967407 35.485416 46.311157 36.079166L44.467407 36.079166Q44.201782 35.53229 44.123657 34.797916ZM43.967407 30.876041Q43.014282 31.266666 41.092407 31.532291Q40.014282 31.688541 39.561157 31.891666Q39.123657 32.079166 38.873657 32.454166Q38.623657 32.829166 38.623657 33.297916Q38.623657 34.00104 39.154907 34.46979Q39.686157 34.93854 40.717407 34.93854Q41.733032 34.93854 42.514282 34.50104Q43.311157 34.047916 43.686157 33.28229Q43.967407 32.672916 43.967407 31.516666L43.967407 30.876041ZM48.358032 23.782291L48.358032 21.766666L50.123657 21.766666L50.123657 23.782291L48.358032 23.782291ZM48.358032 36.079166L48.358032 25.704166L50.123657 25.704166L50.123657 36.079166L48.358032 36.079166ZM52.342407 36.079166L52.342407 25.704166L53.936157 25.704166L53.936157 27.188541Q55.076782 25.469791 57.233032 25.469791Q58.170532 25.469791 58.951782 25.813541Q59.748657 26.141666 60.139282 26.688541Q60.529907 27.235416 60.686157 27.985416Q60.779907 28.485416 60.779907 29.704166L60.779907 36.079166L59.014282 36.079166L59.014282 29.766666Q59.014282 28.688541 58.811157 28.157291Q58.608032 27.626041 58.076782 27.313541Q57.561157 27.001041 56.858032 27.001041Q55.733032 27.001041 54.920532 27.719791Q54.108032 28.422916 54.108032 30.407291L54.108032 36.079166L52.342407 36.079166ZM63.358032 23.782291L63.358032 21.766666L65.12366 21.766666L65.12366 23.782291L63.358032 23.782291ZM63.358032 36.079166L63.358032 25.704166L65.12366 25.704166L65.12366 36.079166L63.358032 36.079166ZM67.34241 36.079166L67.34241 25.704166L68.93616 25.704166L68.93616 27.188541Q70.07678 25.469791 72.23303 25.469791Q73.17053 25.469791 73.95178 25.813541Q74.74866 26.141666 75.13928 26.688541Q75.52991 27.235416 75.68616 27.985416Q75.77991 28.485416 75.77991 29.704166L75.77991 36.079166L74.01428 36.079166L74.01428 29.766666Q74.01428 28.688541 73.81116 28.157291Q73.60803 27.626041 73.07678 27.313541Q72.56116 27.001041 71.85803 27.001041Q70.73303 27.001041 69.92053 27.719791Q69.10803 28.422916 69.10803 30.407291L69.10803 36.079166L67.34241 36.079166ZM78.02991 36.93854L79.73303 37.18854Q79.84241 37.985416 80.32678 38.34479Q80.98303 38.829166 82.12366 38.829166Q83.34241 38.829166 83.99866 38.34479Q84.67053 37.860416 84.90491 36.985416Q85.04553 36.43854 85.02991 34.71979Q83.87366 36.079166 82.15491 36.079166Q80.01428 36.079166 78.84241 34.53229Q77.67053 32.985416 77.67053 30.829166Q77.67053 29.344791 78.20178 28.094791Q78.74866 26.844791 79.76428 26.157291Q80.79553 25.469791 82.17053 25.469791Q83.99866 25.469791 85.20178 26.954166L85.20178 25.704166L86.81116 25.704166L86.81116 34.672916Q86.81116 37.09479 86.31116 38.09479Q85.82678 39.110416 84.74866 39.68854Q83.68616 40.28229 82.12366 40.28229Q80.27991 40.28229 79.12366 39.454166Q77.98303 38.62604 78.02991 36.93854ZM79.48303 30.704166Q79.48303 32.75104 80.29553 33.68854Q81.10803 34.62604 82.32678 34.62604Q83.52991 34.62604 84.34241 33.68854Q85.17053 32.75104 85.17053 30.766666Q85.17053 28.860416 84.32678 27.891666Q83.48303 26.922916 82.29553 26.922916Q81.12366 26.922916 80.29553 27.876041Q79.48303 28.829166 79.48303 30.704166ZM95.34241 40.047916L95.34241 25.704166L96.95178 25.704166L96.95178 27.047916Q97.51428 26.266666 98.21741 25.876041Q98.93616 25.469791 99.95178 25.469791Q101.27991 25.469791 102.29553 26.157291Q103.31116 26.844791 103.82678 28.094791Q104.35803 29.329166 104.35803 30.813541Q104.35803 32.40729 103.77991 33.68854Q103.21741 34.954166 102.12366 35.641666Q101.02991 36.31354 99.82678 36.31354Q98.95178 36.31354 98.24866 35.93854Q97.56116 35.56354 97.10803 35.00104L97.10803 40.047916L95.34241 40.047916ZM96.93616 30.954166Q96.93616 32.954166 97.74866 33.90729Q98.56116 34.860416 99.71741 34.860416Q100.88928 34.860416 101.71741 33.87604Q102.56116 32.891666 102.56116 30.797916Q102.56116 28.829166 101.73303 27.844791Q100.92053 26.844791 99.79553 26.844791Q98.67053 26.844791 97.79553 27.907291Q96.93616 28.954166 96.93616 30.954166ZM113.45178 32.735416L115.26428 32.96979Q114.84241 34.547916 113.67053 35.43854Q112.51428 36.31354 110.70178 36.31354Q108.43616 36.31354 107.09241 34.922916Q105.76428 33.516666 105.76428 30.985416Q105.76428 28.360416 107.10803 26.922916Q108.45178 25.469791 110.60803 25.469791Q112.68616 25.469791 113.99866 26.891666Q115.32678 28.297916 115.32678 30.876041Q115.32678 31.032291 115.31116 31.344791L107.57678 31.344791Q107.67053 33.047916 108.54553 33.954166Q109.42053 34.860416 110.71741 34.860416Q111.68616 34.860416 112.35803 34.360416Q113.04553 33.84479 113.45178 32.735416ZM107.67053 29.891666L113.46741 29.891666Q113.35803 28.594791 112.81116 27.938541Q111.96741 26.922916 110.62366 26.922916Q109.42053 26.922916 108.59241 27.735416Q107.76428 28.532291 107.67053 29.891666ZM117.32678 36.079166L117.32678 25.704166L118.90491 25.704166L118.90491 27.282291Q119.51428 26.172916 120.02991 25.829166Q120.54553 25.469791 121.15491 25.469791Q122.04553 25.469791 122.96741 26.032291L122.35803 27.672916Q121.71741 27.282291 121.07678 27.282291Q120.49866 27.282291 120.02991 27.641666Q119.57678 27.985416 119.37366 28.594791Q119.09241 29.532291 119.09241 30.641666L119.09241 36.079166L117.32678 36.079166ZM124.76428 36.079166L124.76428 27.079166L123.21741 27.079166L123.21741 25.704166L124.76428 25.704166L124.76428 24.610416Q124.76428 23.563541 124.95178 23.047916Q125.20178 22.360416 125.84241 21.938541Q126.48303 21.516666 127.63928 21.516666Q128.38928 21.516666 129.2799 21.688541L129.01428 23.219791Q128.4674 23.126041 127.98303 23.126041Q127.18616 23.126041 126.84241 23.469791Q126.51428 23.813541 126.51428 24.751041L126.51428 25.704166L128.54553 25.704166L128.54553 27.079166L126.51428 27.079166L126.51428 36.079166L124.76428 36.079166ZM129.70178 30.891666Q129.70178 28.016666 131.29553 26.626041Q132.63928 25.469791 134.56116 25.469791Q136.70178 25.469791 138.04553 26.876041Q139.4049 28.282291 139.4049 30.751041Q139.4049 32.75104 138.81116 33.90729Q138.2174 35.047916 137.06116 35.68854Q135.92053 36.31354 134.56116 36.31354Q132.37366 36.31354 131.0299 34.922916Q129.70178 33.516666 129.70178 30.891666ZM131.49866 30.891666Q131.49866 32.891666 132.35803 33.87604Q133.23303 34.860416 134.56116 34.860416Q135.87366 34.860416 136.73303 33.87604Q137.60803 32.87604 137.60803 30.829166Q137.60803 28.907291 136.73303 27.922916Q135.85803 26.922916 134.56116 26.922916Q133.23303 26.922916 132.35803 27.922916Q131.49866 28.907291 131.49866 30.891666ZM141.32678 36.079166L141.32678 25.704166L142.9049 25.704166L142.9049 27.282291Q143.51428 26.172916 144.0299 25.829166Q144.54553 25.469791 145.1549 25.469791Q146.04553 25.469791 146.9674 26.032291L146.35803 27.672916Q145.7174 27.282291 145.07678 27.282291Q144.49866 27.282291 144.0299 27.641666Q143.57678 27.985416 143.37366 28.594791Q143.0924 29.532291 143.0924 30.641666L143.0924 36.079166L141.32678 36.079166ZM148.3424 36.079166L148.3424 25.704166L149.92053 25.704166L149.92053 27.157291Q150.4049 26.407291 151.2174 25.938541Q152.0299 25.469791 153.06116 25.469791Q154.2174 25.469791 154.95178 25.954166Q155.68616 26.422916 155.99866 27.282291Q157.23303 25.469791 159.20178 25.469791Q160.74866 25.469791 161.57678 26.329166Q162.4049 27.188541 162.4049 28.954166L162.4049 36.079166L160.6549 36.079166L160.6549 29.547916Q160.6549 28.485416 160.48303 28.032291Q160.31116 27.563541 159.85803 27.282291Q159.42053 27.001041 158.81116 27.001041Q157.7174 27.001041 156.98303 27.735416Q156.26428 28.454166 156.26428 30.047916L156.26428 36.079166L154.51428 36.079166L154.51428 29.344791Q154.51428 28.172916 154.07678 27.594791Q153.6549 27.001041 152.67053 27.001041Q151.93616 27.001041 151.29553 27.391666Q150.67053 27.782291 150.38928 28.532291Q150.10803 29.282291 150.10803 30.704166L150.10803 36.079166L148.3424 36.079166ZM172.12366 34.797916Q171.13928 35.62604 170.23303 35.96979Q169.32678 36.31354 168.29553 36.31354Q166.5924 36.31354 165.67053 35.485416Q164.74866 34.641666 164.74866 33.34479Q164.74866 32.579166 165.0924 31.954166Q165.45178 31.329166 166.01428 30.954166Q166.57678 30.563541 167.2799 30.360416Q167.79553 30.235416 168.8424 30.094791Q170.9674 29.844791 171.9674 29.501041Q171.98303 29.141666 171.98303 29.032291Q171.98303 27.969791 171.48303 27.516666Q170.81116 26.922916 169.48303 26.922916Q168.23303 26.922916 167.63928 27.360416Q167.06116 27.797916 166.7799 28.907291L165.06116 28.672916Q165.29553 27.563541 165.82678 26.891666Q166.35803 26.204166 167.37366 25.844791Q168.38928 25.469791 169.73303 25.469791Q171.06116 25.469791 171.88928 25.782291Q172.7174 26.094791 173.10803 26.579166Q173.49866 27.047916 173.6549 27.766666Q173.74866 28.219791 173.74866 29.391666L173.74866 31.735416Q173.74866 34.18854 173.85803 34.84479Q173.9674 35.485416 174.31116 36.079166L172.4674 36.079166Q172.20178 35.53229 172.12366 34.797916ZM171.9674 30.876041Q171.01428 31.266666 169.0924 31.532291Q168.01428 31.688541 167.56116 31.891666Q167.12366 32.079166 166.87366 32.454166Q166.62366 32.829166 166.62366 33.297916Q166.62366 34.00104 167.1549 34.46979Q167.68616 34.93854 168.7174 34.93854Q169.73303 34.93854 170.51428 34.50104Q171.31116 34.047916 171.68616 33.28229Q171.9674 32.672916 171.9674 31.516666L171.9674 30.876041ZM176.3424 36.079166L176.3424 25.704166L177.93616 25.704166L177.93616 27.188541Q179.07678 25.469791 181.23303 25.469791Q182.17053 25.469791 182.95178 25.813541Q183.74866 26.141666 184.13928 26.688541Q184.5299 27.235416 184.68616 27.985416Q184.7799 28.485416 184.7799 29.704166L184.7799 36.079166L183.01428 36.079166L183.01428 29.766666Q183.01428 28.688541 182.81116 28.157291Q182.60803 27.626041 182.07678 27.313541Q181.56116 27.001041 180.85803 27.001041Q179.73303 27.001041 178.92053 27.719791Q178.10803 28.422916 178.10803 30.407291L178.10803 36.079166L176.3424 36.079166ZM194.12366 32.28229L195.8424 32.50104Q195.56116 34.297916 194.38928 35.31354Q193.23303 36.31354 191.5299 36.31354Q189.4049 36.31354 188.10803 34.922916Q186.81116 33.53229 186.81116 30.938541Q186.81116 29.251041 187.35803 28.001041Q187.92053 26.735416 189.06116 26.110416Q190.20178 25.469791 191.54553 25.469791Q193.23303 25.469791 194.29553 26.329166Q195.37366 27.188541 195.68616 28.751041L193.9674 29.016666Q193.73303 27.969791 193.10803 27.454166Q192.48303 26.922916 191.60803 26.922916Q190.2799 26.922916 189.45178 27.876041Q188.62366 28.829166 188.62366 30.876041Q188.62366 32.96979 189.42053 33.922916Q190.2174 34.860416 191.51428 34.860416Q192.54553 34.860416 193.23303 34.235416Q193.93616 33.59479 194.12366 32.28229ZM204.45178 32.735416L206.26428 32.96979Q205.8424 34.547916 204.67053 35.43854Q203.51428 36.31354 201.70178 36.31354Q199.43616 36.31354 198.0924 34.922916Q196.76428 33.516666 196.76428 30.985416Q196.76428 28.360416 198.10803 26.922916Q199.45178 25.469791 201.60803 25.469791Q203.68616 25.469791 204.99866 26.891666Q206.32678 28.297916 206.32678 30.876041Q206.32678 31.032291 206.31116 31.344791L198.57678 31.344791Q198.67053 33.047916 199.54553 33.954166Q200.42053 34.860416 201.7174 34.860416Q202.68616 34.860416 203.35803 34.360416Q204.04553 33.84479 204.45178 32.735416ZM198.67053 29.891666L204.4674 29.891666Q204.35803 28.594791 203.81116 27.938541Q202.9674 26.922916 201.62366 26.922916Q200.42053 26.922916 199.5924 27.735416Q198.76428 28.532291 198.67053 29.891666Z" fill-rule="nonzero"/></svg>